#N canvas 662 35 538 675 10;
#X declare -lib mrpeach;
#X obj 2 -25 cnv 15 100 60 empty empty empty 20 12 0 14 -195568 -66577
0;
#N canvas 227 244 476 345 gemwin 0;
#X obj 82 176 gemwin;
#X obj 7 89 outlet;
#X obj 7 10 inlet;
#X msg 7 70 set destroy;
#X msg 412 112 destroy;
#X msg 96 71 set create;
#X obj 7 41 route create;
#X msg 72 112 title goldfish \, dimen 640 360 \, lighting 0 \, create
\, 1;
#X connect 2 0 6 0;
#X connect 3 0 1 0;
#X connect 4 0 0 0;
#X connect 5 0 1 0;
#X connect 6 0 3 0;
#X connect 6 0 7 0;
#X connect 6 1 5 0;
#X connect 6 1 4 0;
#X connect 7 0 0 0;
#X restore 7 14 pd gemwin;
#X msg 7 -8 create;
#X text 3 -29 Create window:;
#X obj 117 -14 tgl 15 0 empty empty empty 17 7 0 10 -262144 -1 -1 0
1;
#X text 134 -15 enable;
#N canvas 862 244 346 237 webcam-src 0;
#X obj 12 132 pix_video;
#X msg 97 107 driver 0;
#X obj 12 72 gemhead 10;
#X obj 12 155 pix_rgba;
#X obj 12 52 tgl 15 0 empty empty empty 17 7 0 10 -262144 -1 -1 0 1
;
#X obj 89 63 loadbang;
#X obj 12 30 inlet;
#X obj 12 178 outlet;
#X obj 204 35 cnv 15 90 20 empty empty empty 20 12 0 14 -233017 -66577
0;
#X text 212 35 Webcam Input;
#X obj 12 102 alpha;
#X msg 89 86 device 0;
#X connect 0 0 3 0;
#X connect 1 0 0 0;
#X connect 2 0 10 0;
#X connect 3 0 7 0;
#X connect 4 0 2 0;
#X connect 5 0 11 0;
#X connect 5 0 1 0;
#X connect 6 0 4 0;
#X connect 10 0 0 0;
#X connect 11 0 0 0;
#X restore 117 6 pd webcam-src;
#X obj 222 -14 tgl 15 0 empty empty empty 17 7 0 10 -262144 -1 -1 0
1;
#X text 239 -15 enable;
#N canvas 311 386 346 237 webcam2-src 0;
#X obj 12 132 pix_video;
#X msg 97 107 driver 0;
#X obj 12 72 gemhead 10;
#X obj 12 155 pix_rgba;
#X obj 12 52 tgl 15 0 empty empty empty 17 7 0 10 -262144 -1 -1 0 1
;
#X obj 89 63 loadbang;
#X obj 12 30 inlet;
#X obj 12 178 outlet;
#X obj 204 35 cnv 15 90 20 empty empty empty 20 12 0 14 -233017 -66577
0;
#X text 212 35 Webcam Input;
#X obj 12 102 alpha;
#X msg 89 86 device 1;
#X connect 0 0 3 0;
#X connect 1 0 0 0;
#X connect 2 0 10 0;
#X connect 3 0 7 0;
#X connect 4 0 2 0;
#X connect 5 0 11 0;
#X connect 5 0 1 0;
#X connect 6 0 4 0;
#X connect 10 0 0 0;
#X connect 11 0 0 0;
#X restore 222 6 pd webcam2-src;
#N canvas 243 427 318 267 osc-manager 0;
#X obj 51 40 unpackOSC;
#X obj 51 19 udpreceive 8000;
#X obj 151 85 print;
#X obj 176 19 inlet;
#X obj 176 42 tgl 15 0 empty empty empty 17 7 0 10 -262144 -1 -1 0
1;
#X obj 151 64 spigot;
#X text 195 41 dump to console;
#X obj -1 112 cnv 15 300 120 empty empty Devices 5 8 0 10 -233017 -66577
0;
#X obj 51 127 routeOSC /1 /2 /3 /4;
#N canvas 275 293 983 393 slash1 0;
#X obj 8 7 inlet;
#N canvas 460 231 386 414 inputWrangler-\$0 0;
#X obj 10 7 inlet;
#X obj 143 174 autoscale;
#X obj 10 350 outlet;
#X obj 84 34 cnv 15 70 70 empty empty empty 20 12 0 14 -233017 -66577
0;
#X obj 90 38 tgl 10 0 empty empty autoscale 17 7 0 8 -262144 -1 -1
0 1;
#X obj 90 52 nbx 3 14 -1e+37 1e+37 0 0 empty empty min 35 9 0 8 -262144
-1 -1 0 256;
#X obj 90 68 nbx 3 14 -1e+37 1e+37 0 0 empty empty max 35 9 0 8 -262144
-1 -1 0 256;
#X obj 157 34 cnv 15 70 70 empty empty empty 20 12 0 14 -233017 -66577
0;
#X obj 167 38 tgl 10 0 empty empty monitor 17 7 0 8 -262144 -1 -1 0
1;
#X obj 181 52 nbx 5 14 -1e+37 1e+37 0 0 empty empty hot -22 8 0 8 -262144
-1 -1 0 256;
#X obj 172 131 spigot;
#N canvas 684 363 450 300 bypassInterface 0;
#X obj 106 118 tgl 15 0 empty empty ENABLE 17 8 0 10 -262144 -1 -1
0 1;
#X obj 106 138 tgl 15 0 empty empty MUTE 17 8 0 10 -262144 -1 -1 0
1;
#X obj 66 52 inlet;
#X obj 186 52 inlet;
#X obj 66 250 outlet;
#X obj 116 250 outlet;
#X text 106 101 input;
#X text 166 101 return;
#X text 106 153 output;
#X text 178 153 send;
#X obj 106 52 inlet;
#X obj 146 52 inlet;
#X obj 66 198 sendreturnbypass;
#X connect 0 0 12 1;
#X connect 1 0 12 2;
#X connect 2 0 12 0;
#X connect 3 0 12 3;
#X connect 10 0 0 0;
#X connect 11 0 1 0;
#X connect 12 0 4 0;
#X connect 12 1 5 0;
#X coords 0 -1 1 1 110 70 2 100 100;
#X restore 10 161 pd bypassInterface;
#X obj 159 87 tgl 15 0 empty empty MUTE 17 8 0 8 -262144 -1 -1 0 1
;
#X obj 181 68 nbx 5 14 -1e+37 1e+37 0 0 empty empty cold -22 8 0 8
-262144 -1 -1 0 256;
#X obj 216 131 spigot;
#X obj 10 327 int;
#X obj 90 88 tgl 10 0 empty empty integers 17 7 0 8 -262144 -1 -1 0
1;
#X obj 53 281 invert;
#X obj 10 301 spigot;
#X obj 53 301 spigot 1;
#X connect 0 0 11 0;
#X connect 0 0 10 0;
#X connect 1 0 11 3;
#X connect 4 0 11 1;
#X connect 5 0 1 1;
#X connect 6 0 1 2;
#X connect 8 0 10 1;
#X connect 8 0 14 1;
#X connect 10 0 9 0;
#X connect 11 0 18 0;
#X connect 11 0 19 0;
#X connect 11 1 1 0;
#X connect 12 0 11 2;
#X connect 14 0 13 0;
#X connect 15 0 2 0;
#X connect 15 0 13 0;
#X connect 16 0 17 0;
#X connect 16 0 18 1;
#X connect 17 0 19 1;
#X connect 18 0 15 0;
#X connect 19 0 2 0;
#X connect 19 0 13 0;
#X coords 0 -1 1 1 150 78 2 80 30;
#X restore 8 131 pd inputWrangler-\$0;
#N canvas 460 231 386 414 inputWrangler-\$0 0;
#X obj 10 7 inlet;
#X obj 143 174 autoscale;
#X obj 10 350 outlet;
#X obj 84 34 cnv 15 70 70 empty empty empty 20 12 0 14 -233017 -66577
0;
#X obj 90 38 tgl 10 0 empty empty autoscale 17 7 0 8 -262144 -1 -1
0 1;
#X obj 90 52 nbx 3 14 -1e+37 1e+37 0 0 empty empty min 35 9 0 8 -262144
-1 -1 0 256;
#X obj 90 68 nbx 3 14 -1e+37 1e+37 0 0 empty empty max 35 9 0 8 -262144
-1 -1 0 256;
#X obj 157 34 cnv 15 70 70 empty empty empty 20 12 0 14 -233017 -66577
0;
#X obj 167 38 tgl 10 0 empty empty monitor 17 7 0 8 -262144 -1 -1 0
1;
#X obj 181 52 nbx 5 14 -1e+37 1e+37 0 0 empty empty hot -22 8 0 8 -262144
-1 -1 0 256;
#X obj 172 131 spigot;
#N canvas 684 363 450 300 bypassInterface 0;
#X obj 106 118 tgl 15 0 empty empty ENABLE 17 8 0 10 -262144 -1 -1
0 1;
#X obj 106 138 tgl 15 0 empty empty MUTE 17 8 0 10 -262144 -1 -1 0
1;
#X obj 66 52 inlet;
#X obj 186 52 inlet;
#X obj 66 250 outlet;
#X obj 116 250 outlet;
#X text 106 101 input;
#X text 166 101 return;
#X text 106 153 output;
#X text 178 153 send;
#X obj 106 52 inlet;
#X obj 146 52 inlet;
#X obj 66 198 sendreturnbypass;
#X connect 0 0 12 1;
#X connect 1 0 12 2;
#X connect 2 0 12 0;
#X connect 3 0 12 3;
#X connect 10 0 0 0;
#X connect 11 0 1 0;
#X connect 12 0 4 0;
#X connect 12 1 5 0;
#X coords 0 -1 1 1 110 70 2 100 100;
#X restore 10 161 pd bypassInterface;
#X obj 159 87 tgl 15 0 empty empty MUTE 17 8 0 8 -262144 -1 -1 0 1
;
#X obj 181 68 nbx 5 14 -1e+37 1e+37 0 0 empty empty cold -22 8 0 8
-262144 -1 -1 0 256;
#X obj 216 131 spigot;
#X obj 10 327 int;
#X obj 90 88 tgl 10 0 empty empty integers 17 7 0 8 -262144 -1 -1 0
1;
#X obj 53 281 invert;
#X obj 10 301 spigot;
#X obj 53 301 spigot 1;
#X connect 0 0 11 0;
#X connect 0 0 10 0;
#X connect 1 0 11 3;
#X connect 4 0 11 1;
#X connect 5 0 1 1;
#X connect 6 0 1 2;
#X connect 8 0 10 1;
#X connect 8 0 14 1;
#X connect 10 0 9 0;
#X connect 11 0 18 0;
#X connect 11 0 19 0;
#X connect 11 1 1 0;
#X connect 12 0 11 2;
#X connect 14 0 13 0;
#X connect 15 0 2 0;
#X connect 15 0 13 0;
#X connect 16 0 17 0;
#X connect 16 0 18 1;
#X connect 17 0 19 1;
#X connect 18 0 15 0;
#X connect 19 0 2 0;
#X connect 19 0 13 0;
#X coords 0 -1 1 1 150 78 2 80 30;
#X restore 160 131 pd inputWrangler-\$0;
#N canvas 460 231 386 414 inputWrangler-\$0 0;
#X obj 10 7 inlet;
#X obj 143 174 autoscale;
#X obj 10 350 outlet;
#X obj 84 34 cnv 15 70 70 empty empty empty 20 12 0 14 -233017 -66577
0;
#X obj 90 38 tgl 10 0 empty empty autoscale 17 7 0 8 -262144 -1 -1
0 1;
#X obj 90 52 nbx 3 14 -1e+37 1e+37 0 0 empty empty min 35 9 0 8 -262144
-1 -1 0 256;
#X obj 90 68 nbx 3 14 -1e+37 1e+37 0 0 empty empty max 35 9 0 8 -262144
-1 -1 0 256;
#X obj 157 34 cnv 15 70 70 empty empty empty 20 12 0 14 -233017 -66577
0;
#X obj 167 38 tgl 10 0 empty empty monitor 17 7 0 8 -262144 -1 -1 0
1;
#X obj 181 52 nbx 5 14 -1e+37 1e+37 0 0 empty empty hot -22 8 0 8 -262144
-1 -1 0 256;
#X obj 172 131 spigot;
#N canvas 684 363 450 300 bypassInterface 0;
#X obj 106 118 tgl 15 0 empty empty ENABLE 17 8 0 10 -262144 -1 -1
0 1;
#X obj 106 138 tgl 15 0 empty empty MUTE 17 8 0 10 -262144 -1 -1 0
1;
#X obj 66 52 inlet;
#X obj 186 52 inlet;
#X obj 66 250 outlet;
#X obj 116 250 outlet;
#X text 106 101 input;
#X text 166 101 return;
#X text 106 153 output;
#X text 178 153 send;
#X obj 106 52 inlet;
#X obj 146 52 inlet;
#X obj 66 198 sendreturnbypass;
#X connect 0 0 12 1;
#X connect 1 0 12 2;
#X connect 2 0 12 0;
#X connect 3 0 12 3;
#X connect 10 0 0 0;
#X connect 11 0 1 0;
#X connect 12 0 4 0;
#X connect 12 1 5 0;
#X coords 0 -1 1 1 110 70 2 100 100;
#X restore 10 161 pd bypassInterface;
#X obj 159 87 tgl 15 0 empty empty MUTE 17 8 0 8 -262144 -1 -1 0 1
;
#X obj 181 68 nbx 5 14 -1e+37 1e+37 0 0 empty empty cold -22 8 0 8
-262144 -1 -1 0 256;
#X obj 216 131 spigot;
#X obj 10 327 int;
#X obj 90 88 tgl 10 0 empty empty integers 17 7 0 8 -262144 -1 -1 0
1;
#X obj 53 281 invert;
#X obj 10 301 spigot;
#X obj 53 301 spigot 1;
#X connect 0 0 11 0;
#X connect 0 0 10 0;
#X connect 1 0 11 3;
#X connect 4 0 11 1;
#X connect 5 0 1 1;
#X connect 6 0 1 2;
#X connect 8 0 10 1;
#X connect 8 0 14 1;
#X connect 10 0 9 0;
#X connect 11 0 18 0;
#X connect 11 0 19 0;
#X connect 11 1 1 0;
#X connect 12 0 11 2;
#X connect 14 0 13 0;
#X connect 15 0 2 0;
#X connect 15 0 13 0;
#X connect 16 0 17 0;
#X connect 16 0 18 1;
#X connect 17 0 19 1;
#X connect 18 0 15 0;
#X connect 19 0 2 0;
#X connect 19 0 13 0;
#X coords 0 -1 1 1 150 78 2 80 30;
#X restore 312 131 pd inputWrangler-\$0;
#N canvas 460 231 386 414 inputWrangler-\$0 0;
#X obj 10 7 inlet;
#X obj 143 174 autoscale;
#X obj 10 350 outlet;
#X obj 84 34 cnv 15 70 70 empty empty empty 20 12 0 14 -233017 -66577
0;
#X obj 90 38 tgl 10 0 empty empty autoscale 17 7 0 8 -262144 -1 -1
0 1;
#X obj 90 52 nbx 3 14 -1e+37 1e+37 0 0 empty empty min 35 9 0 8 -262144
-1 -1 0 256;
#X obj 90 68 nbx 3 14 -1e+37 1e+37 0 0 empty empty max 35 9 0 8 -262144
-1 -1 0 256;
#X obj 157 34 cnv 15 70 70 empty empty empty 20 12 0 14 -233017 -66577
0;
#X obj 167 38 tgl 10 0 empty empty monitor 17 7 0 8 -262144 -1 -1 0
1;
#X obj 181 52 nbx 5 14 -1e+37 1e+37 0 0 empty empty hot -22 8 0 8 -262144
-1 -1 0 256;
#X obj 172 131 spigot;
#N canvas 684 363 450 300 bypassInterface 0;
#X obj 106 118 tgl 15 0 empty empty ENABLE 17 8 0 10 -262144 -1 -1
0 1;
#X obj 106 138 tgl 15 0 empty empty MUTE 17 8 0 10 -262144 -1 -1 0
1;
#X obj 66 198 sendreturnbypass;
#X obj 66 52 inlet;
#X obj 186 52 inlet;
#X obj 66 250 outlet;
#X obj 116 250 outlet;
#X text 106 101 input;
#X text 166 101 return;
#X text 106 153 output;
#X text 178 153 send;
#X obj 106 52 inlet;
#X obj 146 52 inlet;
#X connect 0 0 2 1;
#X connect 1 0 2 2;
#X connect 2 0 5 0;
#X connect 2 1 6 0;
#X connect 3 0 2 0;
#X connect 4 0 2 3;
#X connect 11 0 0 0;
#X connect 12 0 1 0;
#X coords 0 -1 1 1 110 70 2 100 100;
#X restore 10 161 pd bypassInterface;
#X obj 159 87 tgl 15 0 empty empty MUTE 17 8 0 8 -262144 -1 -1 0 1
;
#X obj 181 68 nbx 5 14 -1e+37 1e+37 0 0 empty empty cold -22 8 0 8
-262144 -1 -1 0 256;
#X obj 216 131 spigot;
#X obj 10 327 int;
#X obj 90 88 tgl 10 0 empty empty integers 17 7 0 8 -262144 -1 -1 0
1;
#X obj 53 281 invert;
#X obj 10 301 spigot;
#X obj 53 301 spigot 1;
#X connect 0 0 11 0;
#X connect 0 0 10 0;
#X connect 1 0 11 3;
#X connect 4 0 11 1;
#X connect 5 0 1 1;
#X connect 6 0 1 2;
#X connect 8 0 10 1;
#X connect 8 0 14 1;
#X connect 10 0 9 0;
#X connect 11 0 18 0;
#X connect 11 0 19 0;
#X connect 11 1 1 0;
#X connect 12 0 11 2;
#X connect 14 0 13 0;
#X connect 15 0 2 0;
#X connect 15 0 13 0;
#X connect 16 0 17 0;
#X connect 16 0 18 1;
#X connect 17 0 19 1;
#X connect 18 0 15 0;
#X connect 19 0 2 0;
#X connect 19 0 13 0;
#X coords 0 -1 1 1 150 78 2 80 30;
#X restore 464 131 pd inputWrangler-\$0;
#N canvas 460 231 386 414 inputWrangler-\$0 0;
#X obj 10 7 inlet;
#X obj 143 174 autoscale;
#X obj 10 350 outlet;
#X obj 84 34 cnv 15 70 70 empty empty empty 20 12 0 14 -233017 -66577
0;
#X obj 90 38 tgl 10 0 empty empty autoscale 17 7 0 8 -262144 -1 -1
0 1;
#X obj 90 52 nbx 3 14 -1e+37 1e+37 0 0 empty empty min 35 9 0 8 -262144
-1 -1 0 256;
#X obj 90 68 nbx 3 14 -1e+37 1e+37 0 0 empty empty max 35 9 0 8 -262144
-1 -1 0 256;
#X obj 157 34 cnv 15 70 70 empty empty empty 20 12 0 14 -233017 -66577
0;
#X obj 167 38 tgl 10 0 empty empty monitor 17 7 0 8 -262144 -1 -1 0
1;
#X obj 181 52 nbx 5 14 -1e+37 1e+37 0 0 empty empty hot -22 8 0 8 -262144
-1 -1 0 256;
#X obj 172 131 spigot;
#N canvas 684 363 450 300 bypassInterface 0;
#X obj 106 118 tgl 15 0 empty empty ENABLE 17 8 0 10 -262144 -1 -1
0 1;
#X obj 106 138 tgl 15 0 empty empty MUTE 17 8 0 10 -262144 -1 -1 0
1;
#X obj 66 198 sendreturnbypass;
#X obj 66 52 inlet;
#X obj 186 52 inlet;
#X obj 66 250 outlet;
#X obj 116 250 outlet;
#X text 106 101 input;
#X text 166 101 return;
#X text 106 153 output;
#X text 178 153 send;
#X obj 106 52 inlet;
#X obj 146 52 inlet;
#X connect 0 0 2 1;
#X connect 1 0 2 2;
#X connect 2 0 5 0;
#X connect 2 1 6 0;
#X connect 3 0 2 0;
#X connect 4 0 2 3;
#X connect 11 0 0 0;
#X connect 12 0 1 0;
#X coords 0 -1 1 1 110 70 2 100 100;
#X restore 10 161 pd bypassInterface;
#X obj 159 87 tgl 15 0 empty empty MUTE 17 8 0 8 -262144 -1 -1 0 1
;
#X obj 181 68 nbx 5 14 -1e+37 1e+37 0 0 empty empty cold -22 8 0 8
-262144 -1 -1 0 256;
#X obj 216 131 spigot;
#X obj 10 327 int;
#X obj 90 88 tgl 10 0 empty empty integers 17 7 0 8 -262144 -1 -1 0
1;
#X obj 53 281 invert;
#X obj 10 301 spigot;
#X obj 53 301 spigot 1;
#X connect 0 0 11 0;
#X connect 0 0 10 0;
#X connect 1 0 11 3;
#X connect 4 0 11 1;
#X connect 5 0 1 1;
#X connect 6 0 1 2;
#X connect 8 0 10 1;
#X connect 8 0 14 1;
#X connect 10 0 9 0;
#X connect 11 0 18 0;
#X connect 11 0 19 0;
#X connect 11 1 1 0;
#X connect 12 0 11 2;
#X connect 14 0 13 0;
#X connect 15 0 2 0;
#X connect 15 0 13 0;
#X connect 16 0 17 0;
#X connect 16 0 18 1;
#X connect 17 0 19 1;
#X connect 18 0 15 0;
#X connect 19 0 2 0;
#X connect 19 0 13 0;
#X coords 0 -1 1 1 150 78 2 80 30;
#X restore 616 131 pd inputWrangler-\$0;
#X obj 65 263 print;
#X obj 8 32 routeOSC /fader1 /fader2 /fader3 /fader4 /fader5;
#X connect 0 0 7 0;
#X connect 1 0 6 0;
#X connect 2 0 6 0;
#X connect 3 0 6 0;
#X connect 4 0 6 0;
#X connect 5 0 6 0;
#X connect 7 0 1 0;
#X connect 7 1 2 0;
#X connect 7 2 3 0;
#X connect 7 3 4 0;
#X connect 7 4 5 0;
#X restore 51 169 pd slash1;
#X connect 0 0 5 0;
#X connect 0 0 8 0;
#X connect 1 0 0 0;
#X connect 3 0 4 0;
#X connect 4 0 5 1;
#X connect 5 0 2 0;
#X connect 8 0 9 0;
#X restore 342 6 pd osc-manager;
#X obj 342 -14 tgl 15 0 empty empty empty 17 7 0 10 -262144 -1 -1 0
1;
#X text 358 -15 dump to console;
#N canvas 712 273 450 300 colourProc 0;
#X obj 21 11 inlet;
#X obj 21 271 outlet;
#X obj 43 159 colorRGB;
#X floatatom 56 83 5 0 0 0 - - -;
#X floatatom 67 101 5 0 0 0 - - -;
#X floatatom 76 119 5 0 0 0 - - -;
#X obj 120 62 hsl 128 15 0 1 0 0 empty empty Red 135 9 0 10 -262144
-1 -1 0 1;
#X obj 120 81 hsl 128 15 0 1 0 0 empty empty Green 135 9 0 10 -262144
-1 -1 0 1;
#X obj 120 101 hsl 128 15 0 1 0 0 empty empty Blue 135 9 0 10 -262144
-1 -1 0 1;
#X obj 120 121 hsl 128 15 0 1 0 0 empty empty Alpha 135 9 0 10 -262144
-1 -1 0 1;
#X floatatom 88 139 5 0 0 0 - - -;
#X connect 0 0 2 0;
#X connect 2 0 1 0;
#X connect 3 0 2 1;
#X connect 4 0 2 2;
#X connect 5 0 2 3;
#X connect 6 0 3 0;
#X connect 7 0 4 0;
#X connect 8 0 5 0;
#X connect 9 0 10 0;
#X connect 10 0 2 4;
#X restore 17 458 pd colourProc;
#X obj 17 427 pix_mix;
#X obj 70 425 hsl 104 20 0 1 0 0 empty empty empty -2 -8 0 10 -262144
-1 -1 10300 1;
#X msg 67 405 0;
#X msg 150 405 1;
#X text 107 403 pan;
#X obj 17 577 pix_texture;
#X obj 17 604 rectangle 4 3;
#X obj 342 -38 import mrpeach;
#N canvas 90 335 450 300 flip-\$0 0;
#X obj 23 17 inlet;
#X obj 23 267 outlet;
#X msg 34 204 none;
#X msg 74 204 horizontal;
#X msg 151 204 vertical;
#X msg 215 204 both;
#X obj 23 241 pix_flip;
#X obj 53 68 vradio 15 1 0 4 empty empty flip 0 -8 0 8 -262144 -1 -1
0;
#X text 69 65 none;
#X text 69 82 horizontal;
#X text 69 97 vertical;
#X text 69 112 both;
#X obj 34 171 bng 15 250 50 0 empty empty empty 17 7 0 10 -262144 -1
-1;
#X obj 74 171 bng 15 250 50 0 empty empty empty 17 7 0 10 -262144 -1
-1;
#X obj 151 171 bng 15 250 50 0 empty empty empty 17 7 0 10 -262144
-1 -1;
#X obj 215 171 bng 15 250 50 0 empty empty empty 17 7 0 10 -262144
-1 -1;
#X obj 53 136 select 0 1 2 3;
#X connect 0 0 6 0;
#X connect 2 0 6 0;
#X connect 3 0 6 0;
#X connect 4 0 6 0;
#X connect 5 0 6 0;
#X connect 6 0 1 0;
#X connect 7 0 16 0;
#X connect 12 0 2 0;
#X connect 13 0 3 0;
#X connect 14 0 4 0;
#X connect 15 0 5 0;
#X connect 16 0 12 0;
#X connect 16 1 13 0;
#X connect 16 2 14 0;
#X connect 16 3 15 0;
#X coords 0 -1 1 1 84 82 2 50 50;
#X restore 17 485 pd flip-\$0;
#X obj 309 38 bng 15 250 50 0 empty empty Random 18 8 0 10 -262144
-1 -1;
#X obj 369 38 bng 15 250 50 0 empty empty Default 18 8 0 10 -262144
-1 -1;
#N canvas 681 235 513 448 kaleidoscope-\$0 0;
#X obj -395 -8 cnv 15 120 25 empty empty empty 20 12 0 14 -24198 -66577
0;
#X floatatom -377 -223 5 0 64 1 segments - -;
#X floatatom -281 -222 5 0 0 1 sourceAngle - -;
#X obj -392 -3 pix_kaleidoscope;
#X floatatom -157 -222 5 0 0 1 outputAngle - -;
#X floatatom -11 -126 5 0.1 10 1 sap - -;
#X floatatom -27 -142 5 0 1 1 rlp - -;
#X obj -42 -163 pack;
#X obj 12 -163 t b f;
#X floatatom -42 -202 4 0 100 0 - - -;
#X floatatom 10 -202 4 0 100 0 - - -;
#X obj -42 -183 * 0.01;
#X obj 10 -183 * 0.01;
#X obj -361 -106 pack;
#X obj -347 -164 t b f;
#X floatatom -361 -145 4 0 100 0 - - -;
#X floatatom -349 -203 4 0 100 0 - - -;
#X obj -361 -126 * 0.01;
#X obj -349 -184 * 0.01;
#X obj -397 -329 inlet;
#X obj -298 -298 routeOSC /control;
#X obj -298 -273 routeOSC /8 /10 /12 /14;
#X obj -377 -243 autoscale 0 12;
#X obj -281 -244 autoscale 0 359;
#X obj -157 -244 autoscale 0 359;
#X obj -392 50 outlet;
#X obj -298 -327 r oscmessage;
#X connect 1 0 3 1;
#X connect 2 0 3 2;
#X connect 3 0 25 0;
#X connect 4 0 3 4;
#X connect 5 0 3 7;
#X connect 6 0 3 6;
#X connect 7 0 3 5;
#X connect 8 0 7 0;
#X connect 8 1 7 1;
#X connect 9 0 11 0;
#X connect 10 0 12 0;
#X connect 11 0 7 0;
#X connect 12 0 8 0;
#X connect 13 0 3 3;
#X connect 14 0 13 0;
#X connect 14 1 13 1;
#X connect 15 0 17 0;
#X connect 16 0 18 0;
#X connect 17 0 13 0;
#X connect 18 0 14 0;
#X connect 19 0 3 0;
#X connect 20 0 21 0;
#X connect 21 0 22 0;
#X connect 21 1 23 0;
#X connect 21 2 24 0;
#X connect 22 0 1 0;
#X connect 23 0 2 0;
#X connect 24 0 4 0;
#X connect 26 0 20 0;
#X restore 401 291 pd kaleidoscope-\$0;
#N canvas 0 0 450 300 randomPan 0;
#X obj 40 89 t b b;
#X obj 40 117 random 2;
#X obj 40 143 * 100;
#X obj 40 193 / 100;
#X obj 40 169 line;
#X msg 97 117 1000;
#X obj 40 54 inlet;
#X obj 40 224 outlet;
#X connect 0 0 1 0;
#X connect 0 1 5 0;
#X connect 1 0 2 0;
#X connect 2 0 4 0;
#X connect 3 0 7 0;
#X connect 4 0 3 0;
#X connect 5 0 4 1;
#X connect 6 0 0 0;
#X restore 67 384 pd randomPan;
#N canvas 484 373 450 300 cam1FX 0;
#X obj 10 17 inlet;
#X obj 10 275 outlet;
#X obj 55 17 inlet;
#X obj 100 17 inlet;
#N canvas 0 447 450 300 5waySwitcher 0;
#X obj 14 11 inlet;
#X obj 98 11 inlet;
#X obj 14 271 outlet;
#X obj 74 271 outlet;
#X obj 134 271 outlet;
#X obj 194 271 outlet;
#X obj 254 271 outlet;
#X msg 47 167 1;
#X msg 77 167 0;
#X msg 107 167 1;
#X msg 137 167 0;
#X msg 167 167 1;
#X msg 197 167 0;
#X msg 227 167 1;
#X msg 257 167 0;
#X msg 287 167 1;
#X msg 317 167 0;
#X obj 98 61 hradio 15 1 0 5 empty empty empty 0 -8 0 10 -262144 -1
-1 3;
#X obj 14 198 spigot;
#X obj 74 198 spigot;
#X obj 134 198 spigot;
#X obj 194 198 spigot;
#X obj 254 198 spigot;
#X obj 153 84 select 0 1 2 3 4;
#X obj 98 35 - 1;
#X obj 270 12 inlet;
#X obj 148 35 random 5;
#X obj 148 15 bng 15 250 50 0 empty empty empty 17 7 0 10 -262144 -1
-1;
#X text 240 57 bang inlet 2 for random;
#X text 239 40 Send 1 through 5 to inlet 1 to set;
#X connect 0 0 18 0;
#X connect 0 0 19 0;
#X connect 0 0 20 0;
#X connect 0 0 21 0;
#X connect 0 0 22 0;
#X connect 1 0 24 0;
#X connect 7 0 18 1;
#X connect 8 0 18 1;
#X connect 9 0 19 1;
#X connect 10 0 19 1;
#X connect 11 0 20 1;
#X connect 12 0 20 1;
#X connect 13 0 21 1;
#X connect 14 0 21 1;
#X connect 15 0 22 1;
#X connect 16 0 22 1;
#X connect 17 0 23 0;
#X connect 18 0 2 0;
#X connect 19 0 3 0;
#X connect 20 0 4 0;
#X connect 21 0 5 0;
#X connect 22 0 6 0;
#X connect 23 0 7 0;
#X connect 23 0 10 0;
#X connect 23 0 12 0;
#X connect 23 0 14 0;
#X connect 23 0 16 0;
#X connect 23 1 9 0;
#X connect 23 1 8 0;
#X connect 23 1 12 0;
#X connect 23 1 14 0;
#X connect 23 1 16 0;
#X connect 23 2 11 0;
#X connect 23 2 8 0;
#X connect 23 2 10 0;
#X connect 23 2 14 0;
#X connect 23 2 16 0;
#X connect 23 3 13 0;
#X connect 23 3 16 0;
#X connect 23 3 12 0;
#X connect 23 3 10 0;
#X connect 23 3 8 0;
#X connect 23 4 15 0;
#X connect 23 4 14 0;
#X connect 23 4 12 0;
#X connect 23 4 10 0;
#X connect 23 4 8 0;
#X connect 24 0 17 0;
#X connect 25 0 27 0;
#X connect 26 0 17 0;
#X connect 27 0 26 0;
#X restore 127 96 pd 5waySwitcher;
#N canvas 0 278 432 437 FXchan1 0;
#X obj -18 -165 inlet;
#X obj 340 -165 inlet;
#X obj -18 229 outlet;
#N canvas 367 211 458 427 ChromiumVFX 0;
#X obj 12 3 inlet;
#X obj 57 99 vsl 30 80 0 1 0 0 empty empty edge_1 -2 -9 0 8 -262144
-1 -1 316 1;
#X obj 12 309 outlet;
#X floatatom 57 188 5 0 0 0 - - -;
#X obj 107 99 vsl 30 80 0 1 0 0 empty empty edge_2 -2 -9 0 8 -262144
-1 -1 7900 1;
#X floatatom 107 188 5 0 0 0 - - -;
#X obj 157 99 vsl 30 80 0 1 0 0 empty empty red -2 -9 0 8 -262144 -1
-1 4029 1;
#X floatatom 157 188 5 0 0 0 - - -;
#X obj 207 99 vsl 30 80 0 1 0 0 empty empty green -2 -9 0 8 -262144
-1 -1 6715 1;
#X floatatom 207 188 5 0 0 0 - - -;
#X obj 257 99 vsl 30 80 0 1 0 0 empty empty blue -2 -9 0 8 -262144
-1 -1 5372 1;
#X floatatom 257 188 5 0 0 0 - - -;
#X obj 226 71 bng 15 250 50 0 empty empty defaults 17 7 0 8 -262144
-1 -1;
#X obj 57 53 nbx 4 14 0 1 0 1 empty empty empty 0 -8 0 10 -262144 -1
-1 0.04 256;
#X obj 107 53 nbx 4 14 1 4 0 1 empty empty empty 0 -8 0 10 -262144
-1 -1 1 256;
#X obj 157 53 nbx 4 14 0 1 0 1 empty empty empty 0 -8 0 10 -262144
-1 -1 0.51 256;
#X obj 207 53 nbx 4 14 0 1 0 1 empty empty empty 0 -8 0 10 -262144
-1 -1 0.85 256;
#X obj 257 53 nbx 4 14 0 1 0 1 empty empty empty 0 -8 0 10 -262144
-1 -1 0.68 256;
#X text 53 70 ChromiumVFX;
#X obj 12 271 pix_freeframe ./plugins/ChromiumVFX;
#X text 69 307 This effect alters the colours in the image to give
it an other worldly look. It's inspired by the free photoshop filter
of the same name.;
#X text 14 364 Uses the Pete's Plugins freeframe plugin Chromium. http://www.petewarden.com
;
#X obj 57 3 inlet;
#X obj 107 3 inlet;
#X obj 157 3 inlet;
#X obj 207 3 inlet;
#X obj 257 3 inlet;
#X obj 307 3 inlet;
#X connect 0 0 19 0;
#X connect 1 0 3 0;
#X connect 3 0 19 1;
#X connect 4 0 5 0;
#X connect 5 0 19 2;
#X connect 6 0 7 0;
#X connect 7 0 19 3;
#X connect 8 0 9 0;
#X connect 9 0 19 4;
#X connect 10 0 11 0;
#X connect 11 0 19 5;
#X connect 12 0 13 0;
#X connect 12 0 14 0;
#X connect 12 0 15 0;
#X connect 12 0 16 0;
#X connect 12 0 17 0;
#X connect 13 0 1 0;
#X connect 14 0 4 0;
#X connect 15 0 6 0;
#X connect 16 0 8 0;
#X connect 17 0 10 0;
#X connect 19 0 2 0;
#X connect 22 0 1 0;
#X connect 23 0 4 0;
#X connect 24 0 6 0;
#X connect 25 0 8 0;
#X connect 26 0 10 0;
#X connect 27 0 12 0;
#X coords 0 -1 1 1 245 135 2 50 50;
#X restore -18 64 pd ChromiumVFX;
#X obj 52 -165 inlet;
#X obj -8 -85 random 99;
#X obj -8 -61 / 99;
#X text 186 -162 bang inlet 2 for defaults;
#X obj 52 -85 random 99;
#X obj 52 -61 / 99;
#X obj 112 -85 random 99;
#X obj 112 -61 / 99;
#X obj 172 -85 random 99;
#X obj 172 -61 / 99;
#X obj 232 -85 random 99;
#X obj 232 -61 / 99;
#X obj -8 -110 bng 15 250 50 0 empty empty empty 17 7 0 10 -262144
-1 -1;
#X obj 52 -110 bng 15 250 50 0 empty empty empty 17 7 0 10 -262144
-1 -1;
#X obj 112 -110 bng 15 250 50 0 empty empty empty 17 7 0 10 -262144
-1 -1;
#X obj 172 -110 bng 15 250 50 0 empty empty empty 17 7 0 10 -262144
-1 -1;
#X obj 232 -110 bng 15 250 50 0 empty empty empty 17 7 0 10 -262144
-1 -1;
#X connect 0 0 3 0;
#X connect 1 0 3 6;
#X connect 3 0 2 0;
#X connect 4 0 16 0;
#X connect 4 0 17 0;
#X connect 4 0 18 0;
#X connect 4 0 19 0;
#X connect 4 0 20 0;
#X connect 5 0 6 0;
#X connect 6 0 3 1;
#X connect 8 0 9 0;
#X connect 9 0 3 2;
#X connect 10 0 11 0;
#X connect 11 0 3 3;
#X connect 12 0 13 0;
#X connect 13 0 3 4;
#X connect 14 0 15 0;
#X connect 15 0 3 5;
#X connect 16 0 5 0;
#X connect 17 0 8 0;
#X connect 18 0 10 0;
#X connect 19 0 12 0;
#X connect 20 0 14 0;
#X restore 27 163 pd FXchan1;
#N canvas 830 325 341 372 FXchan2 0;
#N canvas 101 275 437 401 PosterizeVFX 0;
#X obj 12 6 inlet;
#X obj 57 83 vsl 30 80 0 1 0 0 empty empty colours -2 -9 0 8 -262144
-1 -1 316 1;
#X obj 12 279 outlet;
#X floatatom 57 168 5 0 0 0 - - -;
#X obj 93 85 bng 15 250 50 0 empty empty default 17 7 0 8 -262144 -1
-1;
#X obj 57 32 nbx 4 14 0 1 0 1 empty empty empty 0 -8 0 10 -262144 -1
-1 0.04 256;
#X text 53 50 PosterizeVFX;
#X obj 12 241 pix_freeframe ./plugins/PosterizeVFX;
#X text 69 277 This effect reduces the number of colours available
to the image.;
#X text 14 334 Uses the Pete's Plugins freeframe plugin Posterize.
http://www.petewarden.com;
#X obj 57 6 inlet;
#X obj 107 6 inlet;
#X connect 0 0 7 0;
#X connect 1 0 3 0;
#X connect 3 0 7 1;
#X connect 4 0 5 0;
#X connect 5 0 1 0;
#X connect 7 0 2 0;
#X connect 10 0 1 0;
#X connect 11 0 4 0;
#X coords 0 -1 1 1 105 135 2 50 50;
#X restore 106 112 pd PosterizeVFX;
#X obj 106 -1 inlet;
#X obj 155 -1 inlet;
#X obj 204 -1 inlet;
#X obj 106 278 outlet;
#X obj 155 80 / 99;
#X obj 155 31 bng 15 250 50 0 empty empty empty 17 7 0 10 -262144 -1
-1;
#X obj 155 56 random 18;
#X connect 0 0 4 0;
#X connect 1 0 0 0;
#X connect 2 0 6 0;
#X connect 3 0 0 2;
#X connect 5 0 0 1;
#X connect 6 0 7 0;
#X connect 7 0 5 0;
#X restore 102 163 pd FXchan2;
#N canvas 204 287 450 426 FXchan3 0;
#N canvas 197 248 437 372 SolarizeVFX 0;
#X obj 12 6 inlet;
#X obj 157 83 vsl 30 80 0 1 0 0 empty empty end -2 -9 0 8 -262144 -1
-1 6194 1;
#X obj 12 279 outlet;
#X floatatom 157 168 5 0 0 0 - - -;
#X obj 157 29 nbx 4 14 0 1 0 1 empty empty empty 0 -8 0 10 -262144
-1 -1 0.784 256;
#X obj 107 83 vsl 30 80 0 1 0 0 empty empty start -2 -9 0 8 -262144
-1 -1 1896 1;
#X floatatom 107 168 5 0 0 0 - - -;
#X obj 107 29 nbx 4 14 0 1 0 1 empty empty empty 0 -8 0 10 -262144
-1 -1 0.24 256;
#X obj 57 83 vsl 30 80 0.01 1 1 0 empty empty thresh -2 -9 0 8 -262144
-1 -1 6099 1;
#X floatatom 57 168 5 0 0 0 - - -;
#X obj 57 29 nbx 4 14 0 1 0 1 empty empty empty 0 -8 0 10 -262144 -1
-1 0.35 256;
#X obj 162 52 bng 15 250 50 0 empty empty defaults 17 7 0 8 -262144
-1 -1;
#X obj 207 83 vsl 30 80 0 1 0 0 empty empty floor -2 -9 0 8 -262144
-1 -1 2093 1;
#X floatatom 207 168 5 0 0 0 - - -;
#X obj 207 29 nbx 4 14 0 1 0 1 empty empty empty 0 -8 0 10 -262144
-1 -1 0.265 256;
#X obj 12 241 pix_freeframe ./plugins/SolarizeVFX;
#X obj 257 83 vsl 30 80 0 1 0 0 empty empty ceiling -2 -9 0 8 -262144
-1 -1 6399 1;
#X floatatom 257 168 5 0 0 0 - - -;
#X obj 257 29 nbx 4 14 0 1 0 1 empty empty empty 0 -8 0 10 -262144
-1 -1 0.81 256;
#X obj 247 52 tgl 15 0 empty empty limit 17 7 0 8 -262144 -1 -1 0 1
;
#X text 69 277 Smoothly changes between increasing and inverting colour
scales.;
#X text 14 334 Uses the Pete's Plugins freeframe plugin Solarize. http://www.petewarden.com
;
#X text 53 50 SolarizeVFX;
#X obj 52 6 inlet;
#X obj 92 6 inlet;
#X obj 132 6 inlet;
#X obj 172 6 inlet;
#X obj 212 6 inlet;
#X obj 252 6 inlet;
#X obj 292 6 inlet;
#X connect 0 0 15 0;
#X connect 1 0 3 0;
#X connect 3 0 15 3;
#X connect 4 0 1 0;
#X connect 5 0 6 0;
#X connect 6 0 15 2;
#X connect 7 0 5 0;
#X connect 8 0 9 0;
#X connect 9 0 15 1;
#X connect 10 0 8 0;
#X connect 11 0 10 0;
#X connect 11 0 7 0;
#X connect 11 0 4 0;
#X connect 11 0 14 0;
#X connect 11 0 18 0;
#X connect 12 0 13 0;
#X connect 13 0 15 5;
#X connect 14 0 12 0;
#X connect 15 0 2 0;
#X connect 16 0 17 0;
#X connect 17 0 15 6;
#X connect 18 0 16 0;
#X connect 19 0 15 4;
#X connect 23 0 8 0;
#X connect 24 0 5 0;
#X connect 25 0 1 0;
#X connect 26 0 12 0;
#X connect 27 0 16 0;
#X connect 28 0 19 0;
#X connect 29 0 11 0;
#X coords 0 -1 1 1 250 135 2 50 50;
#X restore 38 129 pd SolarizeVFX;
#X obj 38 -98 inlet;
#X obj 78 -98 inlet;
#X obj 318 -98 inlet;
#X obj 38 277 outlet;
#X obj 53 -34 random 99;
#X obj 53 -10 / 99;
#X obj 53 -59 bng 15 250 50 0 empty empty empty 17 7 0 10 -262144 -1
-1;
#X obj 113 -34 random 99;
#X obj 113 -10 / 99;
#X obj 113 -59 bng 15 250 50 0 empty empty empty 17 7 0 10 -262144
-1 -1;
#X obj 173 -34 random 99;
#X obj 173 -10 / 99;
#X obj 173 -59 bng 15 250 50 0 empty empty empty 17 7 0 10 -262144
-1 -1;
#X obj 233 -34 random 99;
#X obj 233 -10 / 99;
#X obj 233 -59 bng 15 250 50 0 empty empty empty 17 7 0 10 -262144
-1 -1;
#X obj 293 -34 random 99;
#X obj 293 -10 / 99;
#X obj 293 -59 bng 15 250 50 0 empty empty empty 17 7 0 10 -262144
-1 -1;
#X obj 353 -59 bng 15 250 50 0 empty empty empty 17 7 0 10 -262144
-1 -1;
#X obj 353 -34 random 2;
#X connect 0 0 4 0;
#X connect 1 0 0 0;
#X connect 2 0 7 0;
#X connect 2 0 10 0;
#X connect 2 0 13 0;
#X connect 2 0 16 0;
#X connect 2 0 19 0;
#X connect 2 0 20 0;
#X connect 3 0 0 7;
#X connect 5 0 6 0;
#X connect 6 0 0 1;
#X connect 7 0 5 0;
#X connect 8 0 9 0;
#X connect 9 0 0 2;
#X connect 10 0 8 0;
#X connect 11 0 12 0;
#X connect 12 0 0 3;
#X connect 13 0 11 0;
#X connect 14 0 15 0;
#X connect 15 0 0 4;
#X connect 16 0 14 0;
#X connect 17 0 18 0;
#X connect 18 0 0 5;
#X connect 19 0 17 0;
#X connect 20 0 21 0;
#X connect 21 0 0 6;
#X restore 177 163 pd FXchan3;
#N canvas 676 317 450 300 FXchan4 0;
#N canvas 171 270 430 385 SlideVFX 0;
#X obj 12 6 inlet;
#X obj 12 279 outlet;
#X obj 67 82 vsl 30 80 0 1 0 0 empty empty scale -2 -9 0 8 -262144
-1 -1 4503 1;
#X obj 208 148 bng 15 250 50 0 empty empty defaults 17 7 0 8 -262144
-1 -1;
#X obj 117 30 nbx 3 14 0 1 0 1 empty empty empty 0 -8 0 10 -262144
-1 -1 0.53 256;
#X obj 67 30 nbx 3 14 0 1 0 1 empty empty empty 0 -8 0 10 -262144 -1
-1 0.57 256;
#X floatatom 67 167 5 0 0 0 - - -;
#X floatatom 117 167 5 0 0 0 - - -;
#X obj 208 78 tgl 15 0 empty empty horizontal 17 7 0 8 -262144 -1 -1
0 1;
#X obj 208 98 tgl 15 0 empty empty mirror 17 7 0 8 -262144 -1 -1 0
1;
#X obj 117 82 vsl 30 80 0 1 0 0 empty empty speed1 0 -9 0 8 -262144
-1 -1 4187 1;
#X msg 281 193 0;
#X obj 12 241 pix_freeframe ./plugins/SlideVFX;
#X obj 167 30 nbx 3 14 0 1 0 1 empty empty empty 0 -8 0 10 -262144
-1 -1 0.47 256;
#X floatatom 167 167 5 0 0 0 - - -;
#X obj 167 82 vsl 30 80 0 1 0 0 empty empty speed2 0 -9 0 8 -262144
-1 -1 3713 1;
#X text 55 52 SlideVFX;
#X text 69 277 The image is broken into segments which are slid independantly
of each other.;
#X text 14 334 Uses the Pete's Plugins freeframe plugin Slide. http://www.petewarden.com
;
#X obj 52 6 inlet;
#X obj 92 6 inlet;
#X obj 132 6 inlet;
#X obj 172 6 inlet;
#X obj 212 6 inlet;
#X obj 252 6 inlet;
#X connect 0 0 12 0;
#X connect 2 0 6 0;
#X connect 3 0 4 0;
#X connect 3 0 5 0;
#X connect 3 0 11 0;
#X connect 3 0 13 0;
#X connect 4 0 10 0;
#X connect 5 0 2 0;
#X connect 6 0 12 4;
#X connect 7 0 12 5;
#X connect 8 0 12 1;
#X connect 9 0 12 2;
#X connect 10 0 7 0;
#X connect 11 0 8 0;
#X connect 11 0 9 0;
#X connect 12 0 1 0;
#X connect 13 0 15 0;
#X connect 14 0 12 6;
#X connect 15 0 14 0;
#X connect 19 0 2 0;
#X connect 20 0 10 0;
#X connect 21 0 15 0;
#X connect 22 0 8 0;
#X connect 23 0 9 0;
#X connect 24 0 3 0;
#X coords 0 -1 1 1 240 135 2 50 50;
#X restore -326 133 pd SlideVFX;
#X obj -326 9 inlet;
#X obj -326 276 outlet;
#X obj -287 9 inlet;
#X obj -312 73 random 99;
#X obj -312 97 / 99;
#X obj -312 48 bng 15 250 50 0 empty empty empty 17 7 0 10 -262144
-1 -1;
#X obj -252 73 random 99;
#X obj -252 97 / 99;
#X obj -252 48 bng 15 250 50 0 empty empty empty 17 7 0 10 -262144
-1 -1;
#X obj -192 73 random 99;
#X obj -192 97 / 99;
#X obj -192 48 bng 15 250 50 0 empty empty empty 17 7 0 10 -262144
-1 -1;
#X obj -132 48 bng 15 250 50 0 empty empty empty 17 7 0 10 -262144
-1 -1;
#X obj -72 48 bng 15 250 50 0 empty empty empty 17 7 0 10 -262144 -1
-1;
#X obj 68 9 inlet;
#X obj -72 73 random 2;
#X obj -132 73 random 2;
#X connect 0 0 2 0;
#X connect 1 0 0 0;
#X connect 3 0 6 0;
#X connect 3 0 9 0;
#X connect 3 0 12 0;
#X connect 3 0 13 0;
#X connect 3 0 14 0;
#X connect 4 0 5 0;
#X connect 5 0 0 1;
#X connect 6 0 4 0;
#X connect 7 0 8 0;
#X connect 8 0 0 2;
#X connect 9 0 7 0;
#X connect 10 0 11 0;
#X connect 11 0 0 3;
#X connect 12 0 10 0;
#X connect 13 0 17 0;
#X connect 14 0 16 0;
#X connect 15 0 0 6;
#X connect 16 0 0 5;
#X connect 17 0 0 4;
#X restore 252 163 pd FXchan4;
#N canvas 89 158 450 442 FXchan5 0;
#N canvas 106 270 437 372 TileVFX 0;
#X obj 12 6 inlet;
#X obj 157 83 vsl 30 80 0 1 0 0 empty empty width -2 -9 0 8 -262144
-1 -1 1580 1;
#X obj 12 279 outlet;
#X floatatom 157 168 5 0 0 0 - - -;
#X obj 157 31 nbx 4 14 0 1 0 1 empty empty empty 0 -8 0 10 -262144
-1 -1 0.2 256;
#X obj 207 83 vsl 30 80 0 1 0 0 empty empty height -2 -9 0 8 -262144
-1 -1 1580 1;
#X floatatom 207 168 5 0 0 0 - - -;
#X obj 207 31 nbx 4 14 0 1 0 1 empty empty empty 0 -8 0 10 -262144
-1 -1 0.2 256;
#X obj 107 83 vsl 30 80 0 1 0 0 empty empty skew -2 -9 0 8 -262144
-1 -1 3950 1;
#X floatatom 107 168 5 0 0 0 - - -;
#X obj 107 31 nbx 4 14 0 1 0 1 empty empty empty 0 -8 0 10 -262144
-1 -1 0.5 256;
#X obj 57 83 vsl 30 80 0 1 0 0 empty empty angle -2 -9 0 8 -262144
-1 -1 3950 1;
#X floatatom 57 168 5 0 0 0 - - -;
#X obj 57 31 nbx 4 14 0 1 0 1 empty empty empty 0 -8 0 10 -262144 -1
-1 0.5 256;
#X obj 12 241 pix_freeframe ./plugins/TileVFX;
#X text 53 50 TileVFX;
#X obj 172 52 bng 15 250 50 0 empty empty defaults 17 7 0 8 -262144
-1 -1;
#X text 69 277 A rectangular part of the image is tiled and mirrored.
;
#X text 14 334 Uses the Pete's Plugins freeframe plugin Tile. http://www.petewarden.com
;
#X obj 52 6 inlet;
#X obj 92 6 inlet;
#X obj 132 6 inlet;
#X obj 172 6 inlet;
#X obj 212 6 inlet;
#X connect 0 0 14 0;
#X connect 1 0 3 0;
#X connect 3 0 14 3;
#X connect 4 0 1 0;
#X connect 5 0 6 0;
#X connect 6 0 14 4;
#X connect 7 0 5 0;
#X connect 8 0 9 0;
#X connect 9 0 14 2;
#X connect 10 0 8 0;
#X connect 11 0 12 0;
#X connect 12 0 14 1;
#X connect 13 0 11 0;
#X connect 14 0 2 0;
#X connect 16 0 13 0;
#X connect 16 0 10 0;
#X connect 16 0 4 0;
#X connect 16 0 7 0;
#X connect 19 0 11 0;
#X connect 20 0 8 0;
#X connect 21 0 1 0;
#X connect 22 0 5 0;
#X connect 23 0 16 0;
#X coords 0 -1 1 1 200 135 2 50 50;
#X restore 19 218 pd TileVFX;
#X obj 19 -22 inlet;
#X obj 64 -22 inlet;
#X obj 39 42 random 99;
#X obj 39 66 / 99;
#X obj 39 17 bng 15 250 50 0 empty empty empty 17 7 0 10 -262144 -1
-1;
#X obj 99 42 random 99;
#X obj 99 66 / 99;
#X obj 99 17 bng 15 250 50 0 empty empty empty 17 7 0 10 -262144 -1
-1;
#X obj 159 42 random 99;
#X obj 159 66 / 99;
#X obj 159 17 bng 15 250 50 0 empty empty empty 17 7 0 10 -262144 -1
-1;
#X obj 219 42 random 99;
#X obj 219 66 / 99;
#X obj 219 17 bng 15 250 50 0 empty empty empty 17 7 0 10 -262144 -1
-1;
#X obj 329 -22 inlet;
#X obj 19 364 outlet;
#X connect 0 0 16 0;
#X connect 1 0 0 0;
#X connect 2 0 5 0;
#X connect 2 0 8 0;
#X connect 2 0 11 0;
#X connect 2 0 14 0;
#X connect 3 0 4 0;
#X connect 4 0 0 1;
#X connect 5 0 3 0;
#X connect 6 0 7 0;
#X connect 7 0 0 2;
#X connect 8 0 6 0;
#X connect 9 0 10 0;
#X connect 10 0 0 3;
#X connect 11 0 9 0;
#X connect 12 0 13 0;
#X connect 13 0 0 4;
#X connect 14 0 12 0;
#X connect 15 0 0 5;
#X restore 327 163 pd FXchan5;
#X connect 0 0 4 0;
#X connect 2 0 4 1;
#X connect 3 0 4 2;
#X connect 4 0 5 0;
#X connect 4 1 6 0;
#X connect 4 2 7 0;
#X connect 4 3 8 0;
#X connect 4 4 9 0;
#X connect 5 0 1 0;
#X connect 6 0 1 0;
#X connect 7 0 1 0;
#X connect 8 0 1 0;
#X connect 9 0 1 0;
#X restore 117 86 pd cam1FX;
#N canvas 484 373 450 300 cam2FX 0;
#X obj 10 17 inlet;
#X obj 10 275 outlet;
#X obj 55 17 inlet;
#X obj 100 17 inlet;
#N canvas 0 447 450 300 5waySwitcher 0;
#X obj 14 11 inlet;
#X obj 98 11 inlet;
#X obj 14 271 outlet;
#X obj 74 271 outlet;
#X obj 134 271 outlet;
#X obj 194 271 outlet;
#X obj 254 271 outlet;
#X msg 47 167 1;
#X msg 77 167 0;
#X msg 107 167 1;
#X msg 137 167 0;
#X msg 167 167 1;
#X msg 197 167 0;
#X msg 227 167 1;
#X msg 257 167 0;
#X msg 287 167 1;
#X msg 317 167 0;
#X obj 98 61 hradio 15 1 0 5 empty empty empty 0 -8 0 10 -262144 -1
-1 3;
#X obj 14 198 spigot;
#X obj 74 198 spigot;
#X obj 134 198 spigot;
#X obj 194 198 spigot;
#X obj 254 198 spigot;
#X obj 153 84 select 0 1 2 3 4;
#X obj 98 35 - 1;
#X obj 270 12 inlet;
#X obj 148 35 random 5;
#X obj 148 15 bng 15 250 50 0 empty empty empty 17 7 0 10 -262144 -1
-1;
#X text 240 57 bang inlet 2 for random;
#X text 239 40 Send 1 through 5 to inlet 1 to set;
#X connect 0 0 18 0;
#X connect 0 0 19 0;
#X connect 0 0 20 0;
#X connect 0 0 21 0;
#X connect 0 0 22 0;
#X connect 1 0 24 0;
#X connect 7 0 18 1;
#X connect 8 0 18 1;
#X connect 9 0 19 1;
#X connect 10 0 19 1;
#X connect 11 0 20 1;
#X connect 12 0 20 1;
#X connect 13 0 21 1;
#X connect 14 0 21 1;
#X connect 15 0 22 1;
#X connect 16 0 22 1;
#X connect 17 0 23 0;
#X connect 18 0 2 0;
#X connect 19 0 3 0;
#X connect 20 0 4 0;
#X connect 21 0 5 0;
#X connect 22 0 6 0;
#X connect 23 0 7 0;
#X connect 23 0 10 0;
#X connect 23 0 12 0;
#X connect 23 0 14 0;
#X connect 23 0 16 0;
#X connect 23 1 9 0;
#X connect 23 1 8 0;
#X connect 23 1 12 0;
#X connect 23 1 14 0;
#X connect 23 1 16 0;
#X connect 23 2 11 0;
#X connect 23 2 8 0;
#X connect 23 2 10 0;
#X connect 23 2 14 0;
#X connect 23 2 16 0;
#X connect 23 3 13 0;
#X connect 23 3 16 0;
#X connect 23 3 12 0;
#X connect 23 3 10 0;
#X connect 23 3 8 0;
#X connect 23 4 15 0;
#X connect 23 4 14 0;
#X connect 23 4 12 0;
#X connect 23 4 10 0;
#X connect 23 4 8 0;
#X connect 24 0 17 0;
#X connect 25 0 27 0;
#X connect 26 0 17 0;
#X connect 27 0 26 0;
#X restore 127 96 pd 5waySwitcher;
#N canvas 0 278 432 437 FXchan1 0;
#X obj -18 -165 inlet;
#X obj 340 -165 inlet;
#X obj -18 229 outlet;
#N canvas 367 211 458 427 ChromiumVFX 0;
#X obj 12 3 inlet;
#X obj 57 99 vsl 30 80 0 1 0 0 empty empty edge_1 -2 -9 0 8 -262144
-1 -1 316 1;
#X obj 12 309 outlet;
#X floatatom 57 188 5 0 0 0 - - -;
#X obj 107 99 vsl 30 80 0 1 0 0 empty empty edge_2 -2 -9 0 8 -262144
-1 -1 7900 1;
#X floatatom 107 188 5 0 0 0 - - -;
#X obj 157 99 vsl 30 80 0 1 0 0 empty empty red -2 -9 0 8 -262144 -1
-1 4029 1;
#X floatatom 157 188 5 0 0 0 - - -;
#X obj 207 99 vsl 30 80 0 1 0 0 empty empty green -2 -9 0 8 -262144
-1 -1 6715 1;
#X floatatom 207 188 5 0 0 0 - - -;
#X obj 257 99 vsl 30 80 0 1 0 0 empty empty blue -2 -9 0 8 -262144
-1 -1 5372 1;
#X floatatom 257 188 5 0 0 0 - - -;
#X obj 226 71 bng 15 250 50 0 empty empty defaults 17 7 0 8 -262144
-1 -1;
#X obj 57 53 nbx 4 14 0 1 0 1 empty empty empty 0 -8 0 10 -262144 -1
-1 0.04 256;
#X obj 107 53 nbx 4 14 1 4 0 1 empty empty empty 0 -8 0 10 -262144
-1 -1 1 256;
#X obj 157 53 nbx 4 14 0 1 0 1 empty empty empty 0 -8 0 10 -262144
-1 -1 0.51 256;
#X obj 207 53 nbx 4 14 0 1 0 1 empty empty empty 0 -8 0 10 -262144
-1 -1 0.85 256;
#X obj 257 53 nbx 4 14 0 1 0 1 empty empty empty 0 -8 0 10 -262144
-1 -1 0.68 256;
#X text 53 70 ChromiumVFX;
#X obj 12 271 pix_freeframe ./plugins/ChromiumVFX;
#X text 69 307 This effect alters the colours in the image to give
it an other worldly look. It's inspired by the free photoshop filter
of the same name.;
#X text 14 364 Uses the Pete's Plugins freeframe plugin Chromium. http://www.petewarden.com
;
#X obj 57 3 inlet;
#X obj 107 3 inlet;
#X obj 157 3 inlet;
#X obj 207 3 inlet;
#X obj 257 3 inlet;
#X obj 307 3 inlet;
#X connect 0 0 19 0;
#X connect 1 0 3 0;
#X connect 3 0 19 1;
#X connect 4 0 5 0;
#X connect 5 0 19 2;
#X connect 6 0 7 0;
#X connect 7 0 19 3;
#X connect 8 0 9 0;
#X connect 9 0 19 4;
#X connect 10 0 11 0;
#X connect 11 0 19 5;
#X connect 12 0 13 0;
#X connect 12 0 14 0;
#X connect 12 0 15 0;
#X connect 12 0 16 0;
#X connect 12 0 17 0;
#X connect 13 0 1 0;
#X connect 14 0 4 0;
#X connect 15 0 6 0;
#X connect 16 0 8 0;
#X connect 17 0 10 0;
#X connect 19 0 2 0;
#X connect 22 0 1 0;
#X connect 23 0 4 0;
#X connect 24 0 6 0;
#X connect 25 0 8 0;
#X connect 26 0 10 0;
#X connect 27 0 12 0;
#X coords 0 -1 1 1 245 135 2 50 50;
#X restore -18 64 pd ChromiumVFX;
#X obj 52 -165 inlet;
#X obj -8 -85 random 99;
#X obj -8 -61 / 99;
#X text 186 -162 bang inlet 2 for defaults;
#X obj 52 -85 random 99;
#X obj 52 -61 / 99;
#X obj 112 -85 random 99;
#X obj 112 -61 / 99;
#X obj 172 -85 random 99;
#X obj 172 -61 / 99;
#X obj 232 -85 random 99;
#X obj 232 -61 / 99;
#X obj -8 -110 bng 15 250 50 0 empty empty empty 17 7 0 10 -262144
-1 -1;
#X obj 52 -110 bng 15 250 50 0 empty empty empty 17 7 0 10 -262144
-1 -1;
#X obj 112 -110 bng 15 250 50 0 empty empty empty 17 7 0 10 -262144
-1 -1;
#X obj 172 -110 bng 15 250 50 0 empty empty empty 17 7 0 10 -262144
-1 -1;
#X obj 232 -110 bng 15 250 50 0 empty empty empty 17 7 0 10 -262144
-1 -1;
#X connect 0 0 3 0;
#X connect 1 0 3 6;
#X connect 3 0 2 0;
#X connect 4 0 16 0;
#X connect 4 0 17 0;
#X connect 4 0 18 0;
#X connect 4 0 19 0;
#X connect 4 0 20 0;
#X connect 5 0 6 0;
#X connect 6 0 3 1;
#X connect 8 0 9 0;
#X connect 9 0 3 2;
#X connect 10 0 11 0;
#X connect 11 0 3 3;
#X connect 12 0 13 0;
#X connect 13 0 3 4;
#X connect 14 0 15 0;
#X connect 15 0 3 5;
#X connect 16 0 5 0;
#X connect 17 0 8 0;
#X connect 18 0 10 0;
#X connect 19 0 12 0;
#X connect 20 0 14 0;
#X restore 27 163 pd FXchan1;
#N canvas 830 325 341 372 FXchan2 0;
#N canvas 101 275 437 401 PosterizeVFX 0;
#X obj 12 6 inlet;
#X obj 57 83 vsl 30 80 0 1 0 0 empty empty colours -2 -9 0 8 -262144
-1 -1 316 1;
#X obj 12 279 outlet;
#X floatatom 57 168 5 0 0 0 - - -;
#X obj 93 85 bng 15 250 50 0 empty empty default 17 7 0 8 -262144 -1
-1;
#X obj 57 32 nbx 4 14 0 1 0 1 empty empty empty 0 -8 0 10 -262144 -1
-1 0.04 256;
#X text 53 50 PosterizeVFX;
#X obj 12 241 pix_freeframe ./plugins/PosterizeVFX;
#X text 69 277 This effect reduces the number of colours available
to the image.;
#X text 14 334 Uses the Pete's Plugins freeframe plugin Posterize.
http://www.petewarden.com;
#X obj 57 6 inlet;
#X obj 107 6 inlet;
#X connect 0 0 7 0;
#X connect 1 0 3 0;
#X connect 3 0 7 1;
#X connect 4 0 5 0;
#X connect 5 0 1 0;
#X connect 7 0 2 0;
#X connect 10 0 1 0;
#X connect 11 0 4 0;
#X coords 0 -1 1 1 105 135 2 50 50;
#X restore 106 112 pd PosterizeVFX;
#X obj 106 -1 inlet;
#X obj 155 -1 inlet;
#X obj 204 -1 inlet;
#X obj 106 278 outlet;
#X obj 155 80 / 99;
#X obj 155 31 bng 15 250 50 0 empty empty empty 17 7 0 10 -262144 -1
-1;
#X obj 155 56 random 18;
#X connect 0 0 4 0;
#X connect 1 0 0 0;
#X connect 2 0 6 0;
#X connect 3 0 0 2;
#X connect 5 0 0 1;
#X connect 6 0 7 0;
#X connect 7 0 5 0;
#X restore 102 163 pd FXchan2;
#N canvas 204 287 450 426 FXchan3 0;
#N canvas 197 248 437 372 SolarizeVFX 0;
#X obj 12 6 inlet;
#X obj 157 83 vsl 30 80 0 1 0 0 empty empty end -2 -9 0 8 -262144 -1
-1 6194 1;
#X obj 12 279 outlet;
#X floatatom 157 168 5 0 0 0 - - -;
#X obj 157 29 nbx 4 14 0 1 0 1 empty empty empty 0 -8 0 10 -262144
-1 -1 0.784 256;
#X obj 107 83 vsl 30 80 0 1 0 0 empty empty start -2 -9 0 8 -262144
-1 -1 1896 1;
#X floatatom 107 168 5 0 0 0 - - -;
#X obj 107 29 nbx 4 14 0 1 0 1 empty empty empty 0 -8 0 10 -262144
-1 -1 0.24 256;
#X obj 57 83 vsl 30 80 0.01 1 1 0 empty empty thresh -2 -9 0 8 -262144
-1 -1 6099 1;
#X floatatom 57 168 5 0 0 0 - - -;
#X obj 57 29 nbx 4 14 0 1 0 1 empty empty empty 0 -8 0 10 -262144 -1
-1 0.35 256;
#X obj 162 52 bng 15 250 50 0 empty empty defaults 17 7 0 8 -262144
-1 -1;
#X obj 207 83 vsl 30 80 0 1 0 0 empty empty floor -2 -9 0 8 -262144
-1 -1 2093 1;
#X floatatom 207 168 5 0 0 0 - - -;
#X obj 207 29 nbx 4 14 0 1 0 1 empty empty empty 0 -8 0 10 -262144
-1 -1 0.265 256;
#X obj 12 241 pix_freeframe ./plugins/SolarizeVFX;
#X obj 257 83 vsl 30 80 0 1 0 0 empty empty ceiling -2 -9 0 8 -262144
-1 -1 6399 1;
#X floatatom 257 168 5 0 0 0 - - -;
#X obj 257 29 nbx 4 14 0 1 0 1 empty empty empty 0 -8 0 10 -262144
-1 -1 0.81 256;
#X obj 247 52 tgl 15 0 empty empty limit 17 7 0 8 -262144 -1 -1 0 1
;
#X text 69 277 Smoothly changes between increasing and inverting colour
scales.;
#X text 14 334 Uses the Pete's Plugins freeframe plugin Solarize. http://www.petewarden.com
;
#X text 53 50 SolarizeVFX;
#X obj 52 6 inlet;
#X obj 92 6 inlet;
#X obj 132 6 inlet;
#X obj 172 6 inlet;
#X obj 212 6 inlet;
#X obj 252 6 inlet;
#X obj 292 6 inlet;
#X connect 0 0 15 0;
#X connect 1 0 3 0;
#X connect 3 0 15 3;
#X connect 4 0 1 0;
#X connect 5 0 6 0;
#X connect 6 0 15 2;
#X connect 7 0 5 0;
#X connect 8 0 9 0;
#X connect 9 0 15 1;
#X connect 10 0 8 0;
#X connect 11 0 10 0;
#X connect 11 0 7 0;
#X connect 11 0 4 0;
#X connect 11 0 14 0;
#X connect 11 0 18 0;
#X connect 12 0 13 0;
#X connect 13 0 15 5;
#X connect 14 0 12 0;
#X connect 15 0 2 0;
#X connect 16 0 17 0;
#X connect 17 0 15 6;
#X connect 18 0 16 0;
#X connect 19 0 15 4;
#X connect 23 0 8 0;
#X connect 24 0 5 0;
#X connect 25 0 1 0;
#X connect 26 0 12 0;
#X connect 27 0 16 0;
#X connect 28 0 19 0;
#X connect 29 0 11 0;
#X coords 0 -1 1 1 250 135 2 50 50;
#X restore 38 129 pd SolarizeVFX;
#X obj 38 -98 inlet;
#X obj 78 -98 inlet;
#X obj 318 -98 inlet;
#X obj 38 277 outlet;
#X obj 53 -34 random 99;
#X obj 53 -10 / 99;
#X obj 53 -59 bng 15 250 50 0 empty empty empty 17 7 0 10 -262144 -1
-1;
#X obj 113 -34 random 99;
#X obj 113 -10 / 99;
#X obj 113 -59 bng 15 250 50 0 empty empty empty 17 7 0 10 -262144
-1 -1;
#X obj 173 -34 random 99;
#X obj 173 -10 / 99;
#X obj 173 -59 bng 15 250 50 0 empty empty empty 17 7 0 10 -262144
-1 -1;
#X obj 233 -34 random 99;
#X obj 233 -10 / 99;
#X obj 233 -59 bng 15 250 50 0 empty empty empty 17 7 0 10 -262144
-1 -1;
#X obj 293 -34 random 99;
#X obj 293 -10 / 99;
#X obj 293 -59 bng 15 250 50 0 empty empty empty 17 7 0 10 -262144
-1 -1;
#X obj 353 -59 bng 15 250 50 0 empty empty empty 17 7 0 10 -262144
-1 -1;
#X obj 353 -34 random 2;
#X connect 0 0 4 0;
#X connect 1 0 0 0;
#X connect 2 0 7 0;
#X connect 2 0 10 0;
#X connect 2 0 13 0;
#X connect 2 0 16 0;
#X connect 2 0 19 0;
#X connect 2 0 20 0;
#X connect 3 0 0 7;
#X connect 5 0 6 0;
#X connect 6 0 0 1;
#X connect 7 0 5 0;
#X connect 8 0 9 0;
#X connect 9 0 0 2;
#X connect 10 0 8 0;
#X connect 11 0 12 0;
#X connect 12 0 0 3;
#X connect 13 0 11 0;
#X connect 14 0 15 0;
#X connect 15 0 0 4;
#X connect 16 0 14 0;
#X connect 17 0 18 0;
#X connect 18 0 0 5;
#X connect 19 0 17 0;
#X connect 20 0 21 0;
#X connect 21 0 0 6;
#X restore 177 163 pd FXchan3;
#N canvas 676 317 450 300 FXchan4 0;
#N canvas 171 270 430 385 SlideVFX 0;
#X obj 12 6 inlet;
#X obj 12 279 outlet;
#X obj 67 82 vsl 30 80 0 1 0 0 empty empty scale -2 -9 0 8 -262144
-1 -1 4503 1;
#X obj 208 148 bng 15 250 50 0 empty empty defaults 17 7 0 8 -262144
-1 -1;
#X obj 117 30 nbx 3 14 0 1 0 1 empty empty empty 0 -8 0 10 -262144
-1 -1 0.53 256;
#X obj 67 30 nbx 3 14 0 1 0 1 empty empty empty 0 -8 0 10 -262144 -1
-1 0.57 256;
#X floatatom 67 167 5 0 0 0 - - -;
#X floatatom 117 167 5 0 0 0 - - -;
#X obj 208 78 tgl 15 0 empty empty horizontal 17 7 0 8 -262144 -1 -1
0 1;
#X obj 208 98 tgl 15 0 empty empty mirror 17 7 0 8 -262144 -1 -1 0
1;
#X obj 117 82 vsl 30 80 0 1 0 0 empty empty speed1 0 -9 0 8 -262144
-1 -1 4187 1;
#X msg 281 193 0;
#X obj 12 241 pix_freeframe ./plugins/SlideVFX;
#X obj 167 30 nbx 3 14 0 1 0 1 empty empty empty 0 -8 0 10 -262144
-1 -1 0.47 256;
#X floatatom 167 167 5 0 0 0 - - -;
#X obj 167 82 vsl 30 80 0 1 0 0 empty empty speed2 0 -9 0 8 -262144
-1 -1 3713 1;
#X text 55 52 SlideVFX;
#X text 69 277 The image is broken into segments which are slid independantly
of each other.;
#X text 14 334 Uses the Pete's Plugins freeframe plugin Slide. http://www.petewarden.com
;
#X obj 52 6 inlet;
#X obj 92 6 inlet;
#X obj 132 6 inlet;
#X obj 172 6 inlet;
#X obj 212 6 inlet;
#X obj 252 6 inlet;
#X connect 0 0 12 0;
#X connect 2 0 6 0;
#X connect 3 0 4 0;
#X connect 3 0 5 0;
#X connect 3 0 11 0;
#X connect 3 0 13 0;
#X connect 4 0 10 0;
#X connect 5 0 2 0;
#X connect 6 0 12 4;
#X connect 7 0 12 5;
#X connect 8 0 12 1;
#X connect 9 0 12 2;
#X connect 10 0 7 0;
#X connect 11 0 8 0;
#X connect 11 0 9 0;
#X connect 12 0 1 0;
#X connect 13 0 15 0;
#X connect 14 0 12 6;
#X connect 15 0 14 0;
#X connect 19 0 2 0;
#X connect 20 0 10 0;
#X connect 21 0 15 0;
#X connect 22 0 8 0;
#X connect 23 0 9 0;
#X connect 24 0 3 0;
#X coords 0 -1 1 1 240 135 2 50 50;
#X restore -326 133 pd SlideVFX;
#X obj -326 9 inlet;
#X obj -326 276 outlet;
#X obj -287 9 inlet;
#X obj -312 73 random 99;
#X obj -312 97 / 99;
#X obj -312 48 bng 15 250 50 0 empty empty empty 17 7 0 10 -262144
-1 -1;
#X obj -252 73 random 99;
#X obj -252 97 / 99;
#X obj -252 48 bng 15 250 50 0 empty empty empty 17 7 0 10 -262144
-1 -1;
#X obj -192 73 random 99;
#X obj -192 97 / 99;
#X obj -192 48 bng 15 250 50 0 empty empty empty 17 7 0 10 -262144
-1 -1;
#X obj -132 48 bng 15 250 50 0 empty empty empty 17 7 0 10 -262144
-1 -1;
#X obj -72 48 bng 15 250 50 0 empty empty empty 17 7 0 10 -262144 -1
-1;
#X obj 68 9 inlet;
#X obj -72 73 random 2;
#X obj -132 73 random 2;
#X connect 0 0 2 0;
#X connect 1 0 0 0;
#X connect 3 0 6 0;
#X connect 3 0 9 0;
#X connect 3 0 12 0;
#X connect 3 0 13 0;
#X connect 3 0 14 0;
#X connect 4 0 5 0;
#X connect 5 0 0 1;
#X connect 6 0 4 0;
#X connect 7 0 8 0;
#X connect 8 0 0 2;
#X connect 9 0 7 0;
#X connect 10 0 11 0;
#X connect 11 0 0 3;
#X connect 12 0 10 0;
#X connect 13 0 17 0;
#X connect 14 0 16 0;
#X connect 15 0 0 6;
#X connect 16 0 0 5;
#X connect 17 0 0 4;
#X restore 252 163 pd FXchan4;
#N canvas 89 158 450 442 FXchan5 0;
#N canvas 106 270 437 372 TileVFX 0;
#X obj 12 6 inlet;
#X obj 157 83 vsl 30 80 0 1 0 0 empty empty width -2 -9 0 8 -262144
-1 -1 1580 1;
#X obj 12 279 outlet;
#X floatatom 157 168 5 0 0 0 - - -;
#X obj 157 31 nbx 4 14 0 1 0 1 empty empty empty 0 -8 0 10 -262144
-1 -1 0.2 256;
#X obj 207 83 vsl 30 80 0 1 0 0 empty empty height -2 -9 0 8 -262144
-1 -1 1580 1;
#X floatatom 207 168 5 0 0 0 - - -;
#X obj 207 31 nbx 4 14 0 1 0 1 empty empty empty 0 -8 0 10 -262144
-1 -1 0.2 256;
#X obj 107 83 vsl 30 80 0 1 0 0 empty empty skew -2 -9 0 8 -262144
-1 -1 3950 1;
#X floatatom 107 168 5 0 0 0 - - -;
#X obj 107 31 nbx 4 14 0 1 0 1 empty empty empty 0 -8 0 10 -262144
-1 -1 0.5 256;
#X obj 57 83 vsl 30 80 0 1 0 0 empty empty angle -2 -9 0 8 -262144
-1 -1 3950 1;
#X floatatom 57 168 5 0 0 0 - - -;
#X obj 57 31 nbx 4 14 0 1 0 1 empty empty empty 0 -8 0 10 -262144 -1
-1 0.5 256;
#X obj 12 241 pix_freeframe ./plugins/TileVFX;
#X text 53 50 TileVFX;
#X obj 172 52 bng 15 250 50 0 empty empty defaults 17 7 0 8 -262144
-1 -1;
#X text 69 277 A rectangular part of the image is tiled and mirrored.
;
#X text 14 334 Uses the Pete's Plugins freeframe plugin Tile. http://www.petewarden.com
;
#X obj 52 6 inlet;
#X obj 92 6 inlet;
#X obj 132 6 inlet;
#X obj 172 6 inlet;
#X obj 212 6 inlet;
#X connect 0 0 14 0;
#X connect 1 0 3 0;
#X connect 3 0 14 3;
#X connect 4 0 1 0;
#X connect 5 0 6 0;
#X connect 6 0 14 4;
#X connect 7 0 5 0;
#X connect 8 0 9 0;
#X connect 9 0 14 2;
#X connect 10 0 8 0;
#X connect 11 0 12 0;
#X connect 12 0 14 1;
#X connect 13 0 11 0;
#X connect 14 0 2 0;
#X connect 16 0 13 0;
#X connect 16 0 10 0;
#X connect 16 0 4 0;
#X connect 16 0 7 0;
#X connect 19 0 11 0;
#X connect 20 0 8 0;
#X connect 21 0 1 0;
#X connect 22 0 5 0;
#X connect 23 0 16 0;
#X coords 0 -1 1 1 200 135 2 50 50;
#X restore 19 218 pd TileVFX;
#X obj 19 -22 inlet;
#X obj 64 -22 inlet;
#X obj 39 42 random 99;
#X obj 39 66 / 99;
#X obj 39 17 bng 15 250 50 0 empty empty empty 17 7 0 10 -262144 -1
-1;
#X obj 99 42 random 99;
#X obj 99 66 / 99;
#X obj 99 17 bng 15 250 50 0 empty empty empty 17 7 0 10 -262144 -1
-1;
#X obj 159 42 random 99;
#X obj 159 66 / 99;
#X obj 159 17 bng 15 250 50 0 empty empty empty 17 7 0 10 -262144 -1
-1;
#X obj 219 42 random 99;
#X obj 219 66 / 99;
#X obj 219 17 bng 15 250 50 0 empty empty empty 17 7 0 10 -262144 -1
-1;
#X obj 329 -22 inlet;
#X obj 19 364 outlet;
#X connect 0 0 16 0;
#X connect 1 0 0 0;
#X connect 2 0 5 0;
#X connect 2 0 8 0;
#X connect 2 0 11 0;
#X connect 2 0 14 0;
#X connect 3 0 4 0;
#X connect 4 0 0 1;
#X connect 5 0 3 0;
#X connect 6 0 7 0;
#X connect 7 0 0 2;
#X connect 8 0 6 0;
#X connect 9 0 10 0;
#X connect 10 0 0 3;
#X connect 11 0 9 0;
#X connect 12 0 13 0;
#X connect 13 0 0 4;
#X connect 14 0 12 0;
#X connect 15 0 0 5;
#X restore 327 163 pd FXchan5;
#X connect 0 0 4 0;
#X connect 2 0 4 1;
#X connect 3 0 4 2;
#X connect 4 0 5 0;
#X connect 4 1 6 0;
#X connect 4 2 7 0;
#X connect 4 3 8 0;
#X connect 4 4 9 0;
#X connect 5 0 1 0;
#X connect 6 0 1 0;
#X connect 7 0 1 0;
#X connect 8 0 1 0;
#X connect 9 0 1 0;
#X restore 222 86 pd cam2FX;
#X obj 359 96 bng 15 250 50 0 empty empty empty 17 7 0 10 -262144 -1
-1;
#X obj 355 132 metro 4000;
#X msg 393 95 stop;
#X connect 1 0 2 0;
#X connect 2 0 1 0;
#X connect 4 0 6 0;
#X connect 6 0 27 0;
#X connect 7 0 9 0;
#X connect 9 0 28 0;
#X connect 11 0 10 0;
#X connect 13 0 22 0;
#X connect 14 0 13 0;
#X connect 15 0 14 2;
#X connect 16 0 15 0;
#X connect 17 0 15 0;
#X connect 19 0 20 0;
#X connect 22 0 19 0;
#X connect 23 0 26 0;
#X connect 23 0 27 2;
#X connect 23 0 28 2;
#X connect 26 0 15 0;
#X connect 27 0 14 0;
#X connect 28 0 14 1;
#X connect 29 0 30 0;
#X connect 30 0 23 0;
#X connect 31 0 30 0;
