#N canvas 665 25 538 669 10;
#X declare -lib mrpeach;
#X obj 2 -26 cnv 15 100 60 empty empty empty 20 12 0 14 -195568 -66577
0;
#N canvas 227 244 476 345 gemwin 0;
#X obj 82 176 gemwin;
#X obj 7 89 outlet;
#X obj 7 10 inlet;
#X msg 7 70 set destroy;
#X msg 412 112 destroy;
#X msg 96 71 set create;
#X obj 7 41 route create;
#X msg 72 112 title goldfish \, dimen 640 360 \, lighting 0 \, create
\, 1;
#X connect 2 0 6 0;
#X connect 3 0 1 0;
#X connect 4 0 0 0;
#X connect 5 0 1 0;
#X connect 6 0 3 0;
#X connect 6 0 7 0;
#X connect 6 1 5 0;
#X connect 6 1 4 0;
#X connect 7 0 0 0;
#X restore 7 13 pd gemwin;
#X msg 7 -9 destroy;
#X text 3 -30 Create window:;
#X obj 117 -15 tgl 15 0 empty empty empty 17 7 0 10 -262144 -1 -1 1
1;
#X text 134 -16 enable;
#N canvas 257 462 346 237 webcam-src 0;
#X obj 12 132 pix_video;
#X msg 97 107 driver 0;
#X obj 12 72 gemhead 10;
#X obj 12 155 pix_rgba;
#X obj 12 52 tgl 15 0 empty empty empty 17 7 0 10 -262144 -1 -1 1 1
;
#X obj 89 63 loadbang;
#X obj 12 30 inlet;
#X obj 12 208 outlet;
#X obj 204 35 cnv 15 90 20 empty empty empty 20 12 0 14 -233017 -66577
0;
#X text 212 35 Webcam Input;
#X obj 12 102 alpha;
#X msg 89 86 device 0;
#X connect 0 0 3 0;
#X connect 1 0 0 0;
#X connect 2 0 10 0;
#X connect 3 0 7 0;
#X connect 4 0 2 0;
#X connect 5 0 11 0;
#X connect 5 0 1 0;
#X connect 6 0 4 0;
#X connect 10 0 0 0;
#X connect 11 0 0 0;
#X restore 117 5 pd webcam-src;
#X obj 292 -15 tgl 15 0 empty empty empty 17 7 0 10 -262144 -1 -1 1
1;
#X text 309 -16 enable;
#N canvas 311 386 346 237 webcam2-src 0;
#X obj 12 132 pix_video;
#X msg 97 107 driver 0;
#X obj 12 155 pix_rgba;
#X obj 12 52 tgl 15 0 empty empty empty 17 7 0 10 -262144 -1 -1 1 1
;
#X obj 89 63 loadbang;
#X obj 12 30 inlet;
#X obj 12 178 outlet;
#X obj 204 35 cnv 15 90 20 empty empty empty 20 12 0 14 -233017 -66577
0;
#X text 212 35 Webcam Input;
#X obj 12 102 alpha;
#X msg 89 86 device 1;
#X obj 12 72 gemhead 10;
#X connect 0 0 2 0;
#X connect 1 0 0 0;
#X connect 2 0 6 0;
#X connect 3 0 11 0;
#X connect 4 0 10 0;
#X connect 4 0 1 0;
#X connect 5 0 3 0;
#X connect 9 0 0 0;
#X connect 10 0 0 0;
#X connect 11 0 9 0;
#X restore 292 5 pd webcam2-src;
#N canvas 243 427 318 267 osc-manager 0;
#X obj 51 40 unpackOSC;
#X obj 51 19 udpreceive 8000;
#X obj 151 85 print;
#X obj 176 19 inlet;
#X obj 176 42 tgl 15 0 empty empty empty 17 7 0 10 -262144 -1 -1 0
1;
#X obj 151 64 spigot;
#X text 195 41 dump to console;
#X obj -1 112 cnv 15 300 120 empty empty Devices 5 8 0 10 -233017 -66577
0;
#X obj 51 127 routeOSC /1 /2 /3 /4;
#N canvas 275 293 983 393 slash1 0;
#X obj 8 7 inlet;
#N canvas 362 227 386 414 inputWrangler-\$0 0;
#X obj 10 7 inlet;
#X obj 143 174 autoscale;
#X obj 10 350 outlet;
#X obj 84 34 cnv 15 70 70 empty empty empty 20 12 0 14 -233017 -66577
0;
#X obj 90 38 tgl 10 0 empty empty autoscale 17 7 0 8 -262144 -1 -1
0 1;
#X obj 90 52 nbx 3 14 -1e+37 1e+37 0 0 empty empty min 35 9 0 8 -262144
-1 -1 0 256;
#X obj 90 68 nbx 3 14 -1e+37 1e+37 0 0 empty empty max 35 9 0 8 -262144
-1 -1 0 256;
#X obj 157 34 cnv 15 70 70 empty empty empty 20 12 0 14 -233017 -66577
0;
#X obj 167 38 tgl 10 0 empty empty monitor 17 7 0 8 -262144 -1 -1 0
1;
#X obj 181 52 nbx 5 14 -1e+37 1e+37 0 0 empty empty hot -22 8 0 8 -262144
-1 -1 0 256;
#X obj 172 131 spigot;
#N canvas 269 315 450 300 bypassInterface 0;
#X obj 106 118 tgl 15 0 empty empty ENABLE 17 8 0 10 -262144 -1 -1
0 1;
#X obj 106 138 tgl 15 0 empty empty MUTE 17 8 0 10 -262144 -1 -1 0
1;
#X obj 66 52 inlet;
#X obj 186 52 inlet;
#X obj 66 250 outlet;
#X obj 116 250 outlet;
#X text 106 101 input;
#X text 166 101 return;
#X text 106 153 output;
#X text 178 153 send;
#X obj 106 52 inlet;
#X obj 146 52 inlet;
#X obj 66 198 sendreturnbypass;
#X connect 0 0 12 1;
#X connect 1 0 12 2;
#X connect 2 0 12 0;
#X connect 3 0 12 3;
#X connect 10 0 0 0;
#X connect 11 0 1 0;
#X connect 12 0 4 0;
#X connect 12 1 5 0;
#X coords 0 -1 1 1 110 70 2 100 100;
#X restore 10 161 pd bypassInterface;
#X obj 159 87 tgl 15 0 empty empty MUTE 17 8 0 8 -262144 -1 -1 0 1
;
#X obj 181 68 nbx 5 14 -1e+37 1e+37 0 0 empty empty cold -22 8 0 8
-262144 -1 -1 0 256;
#X obj 216 131 spigot;
#X obj 10 327 int;
#X obj 90 88 tgl 10 0 empty empty integers 17 7 0 8 -262144 -1 -1 0
1;
#X obj 53 281 invert;
#X obj 10 301 spigot;
#X obj 53 301 spigot 1;
#X connect 0 0 11 0;
#X connect 0 0 10 0;
#X connect 1 0 11 3;
#X connect 4 0 11 1;
#X connect 5 0 1 1;
#X connect 6 0 1 2;
#X connect 8 0 10 1;
#X connect 8 0 14 1;
#X connect 10 0 9 0;
#X connect 11 0 18 0;
#X connect 11 0 19 0;
#X connect 11 1 1 0;
#X connect 12 0 11 2;
#X connect 14 0 13 0;
#X connect 15 0 2 0;
#X connect 15 0 13 0;
#X connect 16 0 17 0;
#X connect 16 0 18 1;
#X connect 17 0 19 1;
#X connect 18 0 15 0;
#X connect 19 0 2 0;
#X connect 19 0 13 0;
#X coords 0 -1 1 1 150 78 2 80 30;
#X restore 8 131 pd inputWrangler-\$0;
#N canvas 460 231 386 414 inputWrangler-\$0 0;
#X obj 10 7 inlet;
#X obj 143 174 autoscale;
#X obj 10 350 outlet;
#X obj 84 34 cnv 15 70 70 empty empty empty 20 12 0 14 -233017 -66577
0;
#X obj 90 38 tgl 10 0 empty empty autoscale 17 7 0 8 -262144 -1 -1
0 1;
#X obj 90 52 nbx 3 14 -1e+37 1e+37 0 0 empty empty min 35 9 0 8 -262144
-1 -1 0 256;
#X obj 90 68 nbx 3 14 -1e+37 1e+37 0 0 empty empty max 35 9 0 8 -262144
-1 -1 0 256;
#X obj 157 34 cnv 15 70 70 empty empty empty 20 12 0 14 -233017 -66577
0;
#X obj 167 38 tgl 10 0 empty empty monitor 17 7 0 8 -262144 -1 -1 0
1;
#X obj 181 52 nbx 5 14 -1e+37 1e+37 0 0 empty empty hot -22 8 0 8 -262144
-1 -1 0 256;
#X obj 172 131 spigot;
#N canvas 684 363 450 300 bypassInterface 0;
#X obj 106 118 tgl 15 0 empty empty ENABLE 17 8 0 10 -262144 -1 -1
0 1;
#X obj 106 138 tgl 15 0 empty empty MUTE 17 8 0 10 -262144 -1 -1 0
1;
#X obj 66 52 inlet;
#X obj 186 52 inlet;
#X obj 66 250 outlet;
#X obj 116 250 outlet;
#X text 106 101 input;
#X text 166 101 return;
#X text 106 153 output;
#X text 178 153 send;
#X obj 106 52 inlet;
#X obj 146 52 inlet;
#X obj 66 198 sendreturnbypass;
#X connect 0 0 12 1;
#X connect 1 0 12 2;
#X connect 2 0 12 0;
#X connect 3 0 12 3;
#X connect 10 0 0 0;
#X connect 11 0 1 0;
#X connect 12 0 4 0;
#X connect 12 1 5 0;
#X coords 0 -1 1 1 110 70 2 100 100;
#X restore 10 161 pd bypassInterface;
#X obj 159 87 tgl 15 0 empty empty MUTE 17 8 0 8 -262144 -1 -1 0 1
;
#X obj 181 68 nbx 5 14 -1e+37 1e+37 0 0 empty empty cold -22 8 0 8
-262144 -1 -1 0 256;
#X obj 216 131 spigot;
#X obj 10 327 int;
#X obj 90 88 tgl 10 0 empty empty integers 17 7 0 8 -262144 -1 -1 0
1;
#X obj 53 281 invert;
#X obj 10 301 spigot;
#X obj 53 301 spigot 1;
#X connect 0 0 11 0;
#X connect 0 0 10 0;
#X connect 1 0 11 3;
#X connect 4 0 11 1;
#X connect 5 0 1 1;
#X connect 6 0 1 2;
#X connect 8 0 10 1;
#X connect 8 0 14 1;
#X connect 10 0 9 0;
#X connect 11 0 18 0;
#X connect 11 0 19 0;
#X connect 11 1 1 0;
#X connect 12 0 11 2;
#X connect 14 0 13 0;
#X connect 15 0 2 0;
#X connect 15 0 13 0;
#X connect 16 0 17 0;
#X connect 16 0 18 1;
#X connect 17 0 19 1;
#X connect 18 0 15 0;
#X connect 19 0 2 0;
#X connect 19 0 13 0;
#X coords 0 -1 1 1 150 78 2 80 30;
#X restore 160 131 pd inputWrangler-\$0;
#N canvas 460 231 386 414 inputWrangler-\$0 0;
#X obj 10 7 inlet;
#X obj 143 174 autoscale;
#X obj 10 350 outlet;
#X obj 84 34 cnv 15 70 70 empty empty empty 20 12 0 14 -233017 -66577
0;
#X obj 90 38 tgl 10 0 empty empty autoscale 17 7 0 8 -262144 -1 -1
0 1;
#X obj 90 52 nbx 3 14 -1e+37 1e+37 0 0 empty empty min 35 9 0 8 -262144
-1 -1 0 256;
#X obj 90 68 nbx 3 14 -1e+37 1e+37 0 0 empty empty max 35 9 0 8 -262144
-1 -1 0 256;
#X obj 157 34 cnv 15 70 70 empty empty empty 20 12 0 14 -233017 -66577
0;
#X obj 167 38 tgl 10 0 empty empty monitor 17 7 0 8 -262144 -1 -1 0
1;
#X obj 181 52 nbx 5 14 -1e+37 1e+37 0 0 empty empty hot -22 8 0 8 -262144
-1 -1 0 256;
#X obj 172 131 spigot;
#N canvas 684 363 450 300 bypassInterface 0;
#X obj 106 118 tgl 15 0 empty empty ENABLE 17 8 0 10 -262144 -1 -1
0 1;
#X obj 106 138 tgl 15 0 empty empty MUTE 17 8 0 10 -262144 -1 -1 0
1;
#X obj 66 52 inlet;
#X obj 186 52 inlet;
#X obj 66 250 outlet;
#X obj 116 250 outlet;
#X text 106 101 input;
#X text 166 101 return;
#X text 106 153 output;
#X text 178 153 send;
#X obj 106 52 inlet;
#X obj 146 52 inlet;
#X obj 66 198 sendreturnbypass;
#X connect 0 0 12 1;
#X connect 1 0 12 2;
#X connect 2 0 12 0;
#X connect 3 0 12 3;
#X connect 10 0 0 0;
#X connect 11 0 1 0;
#X connect 12 0 4 0;
#X connect 12 1 5 0;
#X coords 0 -1 1 1 110 70 2 100 100;
#X restore 10 161 pd bypassInterface;
#X obj 159 87 tgl 15 0 empty empty MUTE 17 8 0 8 -262144 -1 -1 0 1
;
#X obj 181 68 nbx 5 14 -1e+37 1e+37 0 0 empty empty cold -22 8 0 8
-262144 -1 -1 0 256;
#X obj 216 131 spigot;
#X obj 10 327 int;
#X obj 90 88 tgl 10 0 empty empty integers 17 7 0 8 -262144 -1 -1 0
1;
#X obj 53 281 invert;
#X obj 10 301 spigot;
#X obj 53 301 spigot 1;
#X connect 0 0 11 0;
#X connect 0 0 10 0;
#X connect 1 0 11 3;
#X connect 4 0 11 1;
#X connect 5 0 1 1;
#X connect 6 0 1 2;
#X connect 8 0 10 1;
#X connect 8 0 14 1;
#X connect 10 0 9 0;
#X connect 11 0 18 0;
#X connect 11 0 19 0;
#X connect 11 1 1 0;
#X connect 12 0 11 2;
#X connect 14 0 13 0;
#X connect 15 0 2 0;
#X connect 15 0 13 0;
#X connect 16 0 17 0;
#X connect 16 0 18 1;
#X connect 17 0 19 1;
#X connect 18 0 15 0;
#X connect 19 0 2 0;
#X connect 19 0 13 0;
#X coords 0 -1 1 1 150 78 2 80 30;
#X restore 312 131 pd inputWrangler-\$0;
#N canvas 460 231 386 414 inputWrangler-\$0 0;
#X obj 10 7 inlet;
#X obj 143 174 autoscale;
#X obj 10 350 outlet;
#X obj 84 34 cnv 15 70 70 empty empty empty 20 12 0 14 -233017 -66577
0;
#X obj 90 38 tgl 10 0 empty empty autoscale 17 7 0 8 -262144 -1 -1
0 1;
#X obj 90 52 nbx 3 14 -1e+37 1e+37 0 0 empty empty min 35 9 0 8 -262144
-1 -1 0 256;
#X obj 90 68 nbx 3 14 -1e+37 1e+37 0 0 empty empty max 35 9 0 8 -262144
-1 -1 0 256;
#X obj 157 34 cnv 15 70 70 empty empty empty 20 12 0 14 -233017 -66577
0;
#X obj 167 38 tgl 10 0 empty empty monitor 17 7 0 8 -262144 -1 -1 0
1;
#X obj 181 52 nbx 5 14 -1e+37 1e+37 0 0 empty empty hot -22 8 0 8 -262144
-1 -1 0 256;
#X obj 172 131 spigot;
#N canvas 684 363 450 300 bypassInterface 0;
#X obj 106 118 tgl 15 0 empty empty ENABLE 17 8 0 10 -262144 -1 -1
0 1;
#X obj 106 138 tgl 15 0 empty empty MUTE 17 8 0 10 -262144 -1 -1 0
1;
#X obj 66 198 sendreturnbypass;
#X obj 66 52 inlet;
#X obj 186 52 inlet;
#X obj 66 250 outlet;
#X obj 116 250 outlet;
#X text 106 101 input;
#X text 166 101 return;
#X text 106 153 output;
#X text 178 153 send;
#X obj 106 52 inlet;
#X obj 146 52 inlet;
#X connect 0 0 2 1;
#X connect 1 0 2 2;
#X connect 2 0 5 0;
#X connect 2 1 6 0;
#X connect 3 0 2 0;
#X connect 4 0 2 3;
#X connect 11 0 0 0;
#X connect 12 0 1 0;
#X coords 0 -1 1 1 110 70 2 100 100;
#X restore 10 161 pd bypassInterface;
#X obj 159 87 tgl 15 0 empty empty MUTE 17 8 0 8 -262144 -1 -1 0 1
;
#X obj 181 68 nbx 5 14 -1e+37 1e+37 0 0 empty empty cold -22 8 0 8
-262144 -1 -1 0 256;
#X obj 216 131 spigot;
#X obj 10 327 int;
#X obj 90 88 tgl 10 0 empty empty integers 17 7 0 8 -262144 -1 -1 0
1;
#X obj 53 281 invert;
#X obj 10 301 spigot;
#X obj 53 301 spigot 1;
#X connect 0 0 11 0;
#X connect 0 0 10 0;
#X connect 1 0 11 3;
#X connect 4 0 11 1;
#X connect 5 0 1 1;
#X connect 6 0 1 2;
#X connect 8 0 10 1;
#X connect 8 0 14 1;
#X connect 10 0 9 0;
#X connect 11 0 18 0;
#X connect 11 0 19 0;
#X connect 11 1 1 0;
#X connect 12 0 11 2;
#X connect 14 0 13 0;
#X connect 15 0 2 0;
#X connect 15 0 13 0;
#X connect 16 0 17 0;
#X connect 16 0 18 1;
#X connect 17 0 19 1;
#X connect 18 0 15 0;
#X connect 19 0 2 0;
#X connect 19 0 13 0;
#X coords 0 -1 1 1 150 78 2 80 30;
#X restore 464 131 pd inputWrangler-\$0;
#N canvas 460 231 386 414 inputWrangler-\$0 0;
#X obj 10 7 inlet;
#X obj 143 174 autoscale;
#X obj 10 350 outlet;
#X obj 84 34 cnv 15 70 70 empty empty empty 20 12 0 14 -233017 -66577
0;
#X obj 90 38 tgl 10 0 empty empty autoscale 17 7 0 8 -262144 -1 -1
0 1;
#X obj 90 52 nbx 3 14 -1e+37 1e+37 0 0 empty empty min 35 9 0 8 -262144
-1 -1 0 256;
#X obj 90 68 nbx 3 14 -1e+37 1e+37 0 0 empty empty max 35 9 0 8 -262144
-1 -1 0 256;
#X obj 157 34 cnv 15 70 70 empty empty empty 20 12 0 14 -233017 -66577
0;
#X obj 167 38 tgl 10 0 empty empty monitor 17 7 0 8 -262144 -1 -1 0
1;
#X obj 181 52 nbx 5 14 -1e+37 1e+37 0 0 empty empty hot -22 8 0 8 -262144
-1 -1 0 256;
#X obj 172 131 spigot;
#N canvas 684 363 450 300 bypassInterface 0;
#X obj 106 118 tgl 15 0 empty empty ENABLE 17 8 0 10 -262144 -1 -1
0 1;
#X obj 106 138 tgl 15 0 empty empty MUTE 17 8 0 10 -262144 -1 -1 0
1;
#X obj 66 198 sendreturnbypass;
#X obj 66 52 inlet;
#X obj 186 52 inlet;
#X obj 66 250 outlet;
#X obj 116 250 outlet;
#X text 106 101 input;
#X text 166 101 return;
#X text 106 153 output;
#X text 178 153 send;
#X obj 106 52 inlet;
#X obj 146 52 inlet;
#X connect 0 0 2 1;
#X connect 1 0 2 2;
#X connect 2 0 5 0;
#X connect 2 1 6 0;
#X connect 3 0 2 0;
#X connect 4 0 2 3;
#X connect 11 0 0 0;
#X connect 12 0 1 0;
#X coords 0 -1 1 1 110 70 2 100 100;
#X restore 10 161 pd bypassInterface;
#X obj 159 87 tgl 15 0 empty empty MUTE 17 8 0 8 -262144 -1 -1 0 1
;
#X obj 181 68 nbx 5 14 -1e+37 1e+37 0 0 empty empty cold -22 8 0 8
-262144 -1 -1 0 256;
#X obj 216 131 spigot;
#X obj 10 327 int;
#X obj 90 88 tgl 10 0 empty empty integers 17 7 0 8 -262144 -1 -1 0
1;
#X obj 53 281 invert;
#X obj 10 301 spigot;
#X obj 53 301 spigot 1;
#X connect 0 0 11 0;
#X connect 0 0 10 0;
#X connect 1 0 11 3;
#X connect 4 0 11 1;
#X connect 5 0 1 1;
#X connect 6 0 1 2;
#X connect 8 0 10 1;
#X connect 8 0 14 1;
#X connect 10 0 9 0;
#X connect 11 0 18 0;
#X connect 11 0 19 0;
#X connect 11 1 1 0;
#X connect 12 0 11 2;
#X connect 14 0 13 0;
#X connect 15 0 2 0;
#X connect 15 0 13 0;
#X connect 16 0 17 0;
#X connect 16 0 18 1;
#X connect 17 0 19 1;
#X connect 18 0 15 0;
#X connect 19 0 2 0;
#X connect 19 0 13 0;
#X coords 0 -1 1 1 150 78 2 80 30;
#X restore 616 131 pd inputWrangler-\$0;
#X obj 65 263 print;
#X obj 8 32 routeOSC /fader1 /fader2 /fader3 /fader4 /fader5;
#X connect 0 0 7 0;
#X connect 1 0 6 0;
#X connect 2 0 6 0;
#X connect 3 0 6 0;
#X connect 4 0 6 0;
#X connect 5 0 6 0;
#X connect 7 0 1 0;
#X connect 7 1 2 0;
#X connect 7 2 3 0;
#X connect 7 3 4 0;
#X connect 7 4 5 0;
#X restore 51 169 pd slash1;
#X obj 212 -19 import mrpeach;
#X connect 0 0 5 0;
#X connect 0 0 8 0;
#X connect 1 0 0 0;
#X connect 3 0 4 0;
#X connect 4 0 5 1;
#X connect 5 0 2 0;
#X connect 8 0 9 0;
#X restore 7 218 pd osc-manager;
#X obj 7 198 tgl 15 0 empty empty empty 17 7 0 10 -262144 -1 -1 0 1
;
#X text 23 197 dump to console;
#N canvas 712 273 450 300 colourProc 0;
#X obj 21 11 inlet;
#X obj 21 271 outlet;
#X obj 43 159 colorRGB;
#X floatatom 56 83 5 0 0 0 - - -;
#X floatatom 67 101 5 0 0 0 - - -;
#X floatatom 76 119 5 0 0 0 - - -;
#X obj 120 62 hsl 128 15 0 1 0 0 empty empty Red 135 9 0 10 -262144
-1 -1 0 1;
#X obj 120 81 hsl 128 15 0 1 0 0 empty empty Green 135 9 0 10 -262144
-1 -1 0 1;
#X obj 120 101 hsl 128 15 0 1 0 0 empty empty Blue 135 9 0 10 -262144
-1 -1 0 1;
#X obj 120 121 hsl 128 15 0 1 0 0 empty empty Alpha 135 9 0 10 -262144
-1 -1 0 1;
#X floatatom 88 139 5 0 0 0 - - -;
#X connect 0 0 2 0;
#X connect 2 0 1 0;
#X connect 3 0 2 1;
#X connect 4 0 2 2;
#X connect 5 0 2 3;
#X connect 6 0 3 0;
#X connect 7 0 4 0;
#X connect 8 0 5 0;
#X connect 9 0 10 0;
#X connect 10 0 2 4;
#X restore 292 349 pd colourProc;
#X obj 292 595 pix_texture;
#X obj 355 76 bng 15 250 50 0 empty empty Random 18 8 0 10 -262144
-1 -1;
#X obj 355 35 bng 15 250 50 0 empty empty empty 17 7 0 10 -262144 -1
-1;
#X msg 376 34 stop;
#N canvas 175 361 450 300 image1-src 0;
#X obj 13 14 cnv 15 170 250 empty empty empty 20 12 0 14 -228992 -66577
0;
#X obj 17 173 cnv 15 160 60 empty empty empty 20 12 0 14 -24198 -66577
0;
#X obj 18 59 gemhead;
#X obj 18 211 pix_image;
#X obj 34 81 bng 15 250 50 0 empty empty empty 0 -6 0 8 -262144 -1
-1;
#N canvas 0 0 450 300 openpanel 0;
#X obj 114 62 inlet;
#X obj 121 254 outlet;
#X obj 114 125 openpanel;
#X msg 114 162 set open \$1;
#X obj 114 199 t b a;
#X connect 0 0 2 0;
#X connect 2 0 3 0;
#X connect 3 0 4 0;
#X connect 4 0 1 0;
#X connect 4 1 1 0;
#X restore 34 102 pd openpanel;
#X msg 34 125 open /home/goldfish/projects/puredata/LoH-LiveVideo/images/LoHtext.xcf
;
#X msg 88 211 thread \$1;
#X obj 159 215 tgl 15 0 empty empty empty 17 7 0 10 -262144 -1 -1 0
1;
#X obj 18 41 tgl 15 0 empty empty empty 17 7 0 10 -262144 -1 -1 0 1
;
#X obj 18 21 inlet;
#X obj 18 240 outlet;
#X connect 2 0 3 0;
#X connect 3 0 11 0;
#X connect 4 0 5 0;
#X connect 5 0 6 0;
#X connect 6 0 3 0;
#X connect 7 0 3 0;
#X connect 8 0 7 0;
#X connect 9 0 2 0;
#X connect 10 0 9 0;
#X restore 379 252 pd image1-src;
#X obj 379 232 tgl 15 0 empty empty empty 17 7 0 10 -262144 -1 -1 0
1;
#X text 396 231 enable;
#N canvas 207 410 450 300 chroma_mixer 0;
#X obj 50 59 cnv 15 160 175 empty empty empty 20 12 0 14 -24198 -66577
0;
#X obj 50 212 pix_chroma_key;
#X msg 85 189 direction \$1;
#X obj 85 169 tgl 15 1 empty empty empty 0 -6 0 8 -262144 -1 -1 0 1
;
#X floatatom 64 77 5 0 255 0 - - -;
#X floatatom 74 129 5 0 255 0 - - -;
#X obj 77 115 hsl 128 12 0 1 0 0 empty empty empty -2 -8 0 10 -262144
-1 -1 0 1;
#X obj 67 62 hsl 128 12 0 1 0 0 empty empty empty -2 -8 0 10 -262144
-1 -1 0 1;
#X msg 64 94 value \$1 \$1 \$1;
#X msg 74 147 range \$1 \$1 \$1;
#X obj 50 26 inlet;
#X obj 230 26 inlet;
#X obj 50 253 outlet;
#X connect 1 0 12 0;
#X connect 2 0 1 0;
#X connect 3 0 2 0;
#X connect 4 0 8 0;
#X connect 5 0 9 0;
#X connect 6 0 5 0;
#X connect 7 0 4 0;
#X connect 8 0 1 0;
#X connect 9 0 1 0;
#X connect 10 0 1 0;
#X connect 11 0 1 1;
#X restore 292 326 pd chroma_mixer;
#X obj 379 300 pix_invert;
#X obj 379 276 pix_add;
#X obj 3 84 cnv 15 200 105 empty empty empty 20 12 0 14 -258113 -66577
0;
#X obj 56 148 tgl 15 0 empty empty empty 17 7 0 10 -262144 -1 -1 0
1;
#X msg 79 147 auto \$1;
#X obj 38 169 pix_write;
#N canvas 116 327 459 351 fiducialProcessing 0;
#X obj 14 30 pix_grey;
#X obj 14 51 pix_threshold_bernsen 16 16;
#X obj 24 81 pix_fiducialtrack;
#X obj 14 8 inlet;
#N canvas 722 100 450 300 fid2track 0;
#X obj 21 18 inlet;
#X obj 21 49 unpack 0 0 0;
#X obj 90 75 autoscale;
#X obj 21 130 s cam1FX1a;
#X obj 91 130 s cam1FX1b;
#X obj 161 130 s cam1FX1c;
#X connect 0 0 1 0;
#X connect 1 0 3 0;
#X connect 1 1 4 0;
#X connect 1 2 2 0;
#X connect 2 0 5 0;
#X restore 229 284 pd fid2track;
#N canvas 722 100 450 300 fid1track 0;
#X obj 21 18 inlet;
#X obj 21 49 unpack 0 0 0;
#X obj 90 75 autoscale;
#X obj 21 130 s cam1FX1c;
#X obj 91 130 s cam1FX1d;
#X obj 161 130 s cam1FX1e;
#X connect 0 0 1 0;
#X connect 1 0 3 0;
#X connect 1 1 4 0;
#X connect 1 2 2 0;
#X connect 2 0 5 0;
#X restore 215 304 pd fid1track;
#X obj 14 223 pix_texture;
#X obj 215 115 route 0 1 2 3 4 5 6 7 8 9;
#X obj 14 272 rectangle 1.5 0.84;
#X obj 14 159 spigot 1;
#X obj 69 138 tgl 15 0 empty empty empty 17 7 0 10 -262144 -1 -1 1
1;
#X obj 69 8 inlet;
#X text 109 12 monitor;
#N canvas 82 187 450 499 breathe 0;
#X obj -12 462 outlet;
#X obj -12 10 inlet;
#X obj -12 33 tgl 15 0 empty empty empty 17 7 0 10 -262144 -1 -1 0
1;
#X floatatom 39 33 5 0 0 0 - - -;
#X obj -12 80 float;
#X floatatom -12 227 6 0 0 0 - - -;
#X msg 101 48 0;
#X floatatom 209 49 5 0 0 0 - - -;
#X floatatom 274 48 5 0 0 0 - - -;
#X obj 52 155 spigot 0;
#X obj -12 155 spigot 1;
#X obj 223 264 moses 0.1;
#X obj 97 115 tgl 15 0 empty empty empty 17 7 0 10 -262144 -1 -1 0
1;
#X obj 97 135 invert;
#X obj 274 284 bng 15 250 50 0 empty empty empty 17 7 0 10 -262144
-1 -1;
#X obj 146 284 bng 15 250 50 0 empty empty empty 17 7 0 10 -262144
-1 -1;
#X obj 52 178 - 0.001;
#X obj -12 53 metro 50;
#X obj -12 178 + 0.001;
#X obj 146 264 moses 0.001;
#X connect 1 0 2 0;
#X connect 2 0 17 0;
#X connect 3 0 17 1;
#X connect 4 0 10 0;
#X connect 4 0 9 0;
#X connect 5 0 11 0;
#X connect 5 0 0 0;
#X connect 5 0 19 0;
#X connect 6 0 4 0;
#X connect 7 0 19 1;
#X connect 8 0 11 1;
#X connect 9 0 16 0;
#X connect 10 0 18 0;
#X connect 11 1 14 0;
#X connect 12 0 13 0;
#X connect 12 0 10 1;
#X connect 13 0 9 1;
#X connect 14 0 12 0;
#X connect 15 0 12 0;
#X connect 16 0 4 1;
#X connect 16 0 5 0;
#X connect 17 0 4 0;
#X connect 18 0 4 1;
#X connect 18 0 5 0;
#X connect 19 0 15 0;
#X restore 92 223 pd breathe;
#X obj 92 203 tgl 15 0 empty empty empty 17 7 0 10 -262144 -1 -1 0
1;
#N canvas 530 149 528 393 displayTagInfo 0;
#X obj 83 18 inlet;
#X floatatom 83 71 5 0 0 0 ID - -;
#X floatatom 83 87 5 0 0 0 x - -;
#X floatatom 83 103 5 0 0 0 y - -;
#X floatatom 83 119 5 0 0 0 angle - -;
#X obj 83 46 unpack 0 0 0 0;
#X obj 287 126 rad2deg;
#X floatatom 83 139 5 0 0 0 angle - -;
#X obj 314 180 gemhead;
#X msg 364 302 font \$1;
#X obj 364 283 openpanel;
#X obj 364 266 bng 15 250 50 0 empty empty empty 0 -6 0 8 -262144 -1
-1;
#X msg 335 244 justify left base;
#X obj 314 328 text2d;
#X msg 324 222 text \$1 \$2 \$3 \$4;
#X obj 218 170 pack f f f f;
#X obj 287 149 int;
#X obj 281 80 * 100;
#X obj 281 103 int;
#X obj 241 80 * 100;
#X obj 241 103 int;
#X obj 122 228 pix_texture;
#X obj 122 182 gemhead;
#X obj 122 205 color 1 0 0;
#X obj 157 291 * 2.27;
#X obj 199 291 * -1.26;
#X obj 122 337 translateXYZ -5.2 -1.6 1;
#N canvas 594 98 450 558 fidcolourpicker 0;
#X obj 12 8 inlet;
#X obj 12 339 outlet;
#X obj 12 36 select 0 1 2 3 4 5 6 7 8 9;
#X obj 12 318 pack f f f;
#X msg 12 277 1 0 0;
#X msg 27 257 0 1 0;
#X msg 42 237 0 0 1;
#X msg 57 217 1 1 0;
#X msg 73 197 0 1 1;
#X msg 88 177 1 0 1;
#X connect 0 0 2 0;
#X connect 2 0 4 0;
#X connect 2 1 5 0;
#X connect 2 2 6 0;
#X connect 2 3 7 0;
#X connect 2 4 8 0;
#X connect 2 5 9 0;
#X connect 3 0 1 0;
#X connect 4 0 3 0;
#X connect 5 0 3 0;
#X connect 6 0 3 0;
#X connect 7 0 3 0;
#X connect 8 0 3 0;
#X connect 9 0 3 0;
#X restore 1 177 pd fidcolourpicker;
#X obj 122 360 circle 0.04;
#X obj 314 201 translateXYZ -3.68 -3.79 0;
#X obj 122 314 translateXYZ 0 0 0;
#X obj 157 249 - 1;
#X obj 157 270 abs;
#X obj 122 161 tgl 15 1 empty empty empty 17 7 0 10 -262144 -1 -1 1
1;
#X obj 198 18 inlet;
#X obj 314 160 tgl 15 0 empty empty empty 17 7 0 10 -262144 -1 -1 1
1;
#X connect 0 0 5 0;
#X connect 5 0 1 0;
#X connect 5 0 15 0;
#X connect 5 0 27 0;
#X connect 5 1 2 0;
#X connect 5 1 19 0;
#X connect 5 1 31 0;
#X connect 5 2 3 0;
#X connect 5 2 17 0;
#X connect 5 2 25 0;
#X connect 5 3 4 0;
#X connect 5 3 6 0;
#X connect 6 0 7 0;
#X connect 6 0 16 0;
#X connect 8 0 29 0;
#X connect 9 0 13 0;
#X connect 10 0 9 0;
#X connect 11 0 10 0;
#X connect 12 0 13 0;
#X connect 14 0 13 0;
#X connect 15 0 14 0;
#X connect 16 0 15 3;
#X connect 17 0 18 0;
#X connect 18 0 15 2;
#X connect 19 0 20 0;
#X connect 20 0 15 1;
#X connect 21 0 30 0;
#X connect 22 0 23 0;
#X connect 23 0 21 0;
#X connect 24 0 30 1;
#X connect 25 0 30 2;
#X connect 26 0 28 0;
#X connect 27 0 23 1;
#X connect 29 0 13 0;
#X connect 30 0 26 0;
#X connect 31 0 32 0;
#X connect 32 0 24 0;
#X connect 33 0 22 0;
#X connect 34 0 33 0;
#X connect 34 0 35 0;
#X connect 35 0 8 0;
#X restore 24 105 pd displayTagInfo;
#X obj 14 248 translateXYZ -5.4 -3 0.01;
#X obj 14 200 pix_flip;
#X msg 27 180 horizontal;
#X obj 313 8 loadbang;
#X obj 133 105 tgl 15 0 empty empty enable 17 7 0 10 -262144 -1 -1
1 1;
#X obj 164 8 inlet;
#N canvas 80 211 450 488 fid0track 0;
#X floatatom 132 134 5 0 0 0 - - -;
#X floatatom 84 120 5 0 0 0 - - -;
#X floatatom 202 120 5 0 0 0 - - -;
#X obj 132 118 bng 15 250 50 0 empty empty empty 17 7 0 10 -262144
-1 -1;
#X floatatom 321 120 5 0 0 0 - - -;
#X obj 80 216 translateXYZ;
#X obj 321 92 autoscale -10 2.9;
#X msg 365 45 reset;
#X obj 12 10 inlet;
#X obj 12 33 unpack 0 0 0;
#X obj 17 145 gemhead 100;
#X obj 216 245 scaleXYZ;
#X obj 84 92 autoscale -4 4;
#X obj 202 92 autoscale 3 -3;
#X obj 216 349 cube 3;
#X obj 216 320 spigot;
#X obj 251 284 tgl 15 0 empty empty empty 17 7 0 10 -262144 -1 -1 0
1;
#X connect 0 0 5 1;
#X connect 0 0 5 2;
#X connect 0 0 5 3;
#X connect 0 0 11 3;
#X connect 0 0 11 2;
#X connect 0 0 11 1;
#X connect 1 0 5 1;
#X connect 2 0 5 2;
#X connect 3 0 0 0;
#X connect 4 0 11 1;
#X connect 4 0 11 2;
#X connect 5 0 11 0;
#X connect 6 0 4 0;
#X connect 7 0 6 0;
#X connect 7 0 12 0;
#X connect 7 0 13 0;
#X connect 8 0 9 0;
#X connect 9 0 12 0;
#X connect 9 1 13 0;
#X connect 9 2 6 0;
#X connect 10 0 5 0;
#X connect 11 0 15 0;
#X connect 12 0 1 0;
#X connect 13 0 2 0;
#X connect 15 0 14 0;
#X connect 16 0 15 1;
#X restore 333 285 pd fid0track;
#N canvas 281 285 450 300 fid0008track 0;
#X obj 21 18 inlet;
#X obj 21 49 unpack f f f;
#X obj 90 75 rad2deg;
#X obj 90 96 / 360;
#X obj 90 118 s fid0008angle;
#X obj 21 158 s fid0008x;
#X obj 55 138 s fid0008y;
#X connect 0 0 1 0;
#X connect 1 0 5 0;
#X connect 1 1 6 0;
#X connect 1 2 2 0;
#X connect 2 0 3 0;
#X connect 3 0 4 0;
#X restore 332 162 pd fid0008track;
#N canvas 6 415 732 291 fiducialPatchBay 0;
#X obj 407 18 r fid0008angle;
#X obj 339 18 r fid0008y;
#X obj 271 18 r fid0008x;
#X restore 229 325 pd fiducialPatchBay;
#N canvas 281 285 450 300 fid0001track 0;
#X obj 21 18 inlet;
#X obj 21 49 unpack f f f;
#X obj 90 75 rad2deg;
#X obj 90 96 / 360;
#X obj 21 158 s fid0001x;
#X obj 55 138 s fid0001y;
#X obj 90 118 s fid0001angle;
#X connect 0 0 1 0;
#X connect 1 0 4 0;
#X connect 1 1 5 0;
#X connect 1 2 2 0;
#X connect 2 0 3 0;
#X connect 3 0 6 0;
#X restore 229 222 pd fid0001track;
#N canvas 281 285 450 300 fid0009track 0;
#X obj 21 18 inlet;
#X obj 21 49 unpack f f f;
#X obj 90 75 rad2deg;
#X obj 90 96 / 360;
#X obj 21 158 s fid0009x;
#X obj 55 138 s fid0009y;
#X obj 90 118 s fid0009angle;
#X connect 0 0 1 0;
#X connect 1 0 4 0;
#X connect 1 1 5 0;
#X connect 1 2 2 0;
#X connect 2 0 3 0;
#X connect 3 0 6 0;
#X restore 347 142 pd fid0009track;
#N canvas 281 285 450 300 fid0000track 0;
#X obj 21 18 inlet;
#X obj 21 49 unpack f f f;
#X obj 90 75 rad2deg;
#X obj 90 96 / 360;
#X obj 21 158 s fid0000x;
#X obj 55 138 s fid0000y;
#X obj 90 118 s fid0000angle;
#X connect 0 0 1 0;
#X connect 1 0 4 0;
#X connect 1 1 5 0;
#X connect 1 2 2 0;
#X connect 2 0 3 0;
#X connect 3 0 6 0;
#X restore 215 242 pd fid0000track;
#N canvas 140 25 450 300 fid0004track 0;
#X obj 21 18 inlet;
#X obj 21 49 unpack f f f;
#X obj 90 75 rad2deg;
#X obj 90 96 / 360;
#X obj 21 158 s fid0004x;
#X obj 55 138 s fid0004y;
#X obj 90 118 s fid0004angle;
#X connect 0 0 1 0;
#X connect 1 0 4 0;
#X connect 1 1 5 0;
#X connect 1 2 2 0;
#X connect 2 0 3 0;
#X connect 3 0 6 0;
#X restore 273 202 pd fid0004track;
#N canvas 201 397 450 300 fid0006track 0;
#X obj 21 18 inlet;
#X obj 21 49 unpack f f f;
#X obj 90 75 rad2deg;
#X obj 90 96 / 360;
#X obj 90 118 s fid0006angle;
#X obj 55 138 s fid0006y;
#X obj 21 158 s fid0006x;
#X connect 0 0 1 0;
#X connect 1 0 6 0;
#X connect 1 1 5 0;
#X connect 1 2 2 0;
#X connect 2 0 3 0;
#X connect 3 0 4 0;
#X restore 303 182 pd fid0006track;
#X connect 0 0 1 0;
#X connect 1 0 2 0;
#X connect 1 0 9 0;
#X connect 2 1 7 0;
#X connect 2 1 15 0;
#X connect 3 0 0 0;
#X connect 6 0 16 0;
#X connect 7 0 27 0;
#X connect 7 1 25 0;
#X connect 7 4 28 0;
#X connect 7 6 29 0;
#X connect 7 8 23 0;
#X connect 7 9 26 0;
#X connect 9 0 17 0;
#X connect 10 0 9 1;
#X connect 11 0 10 0;
#X connect 13 0 16 3;
#X connect 14 0 13 0;
#X connect 16 0 8 0;
#X connect 17 0 6 0;
#X connect 18 0 17 0;
#X connect 19 0 18 0;
#X connect 20 0 15 1;
#X connect 21 0 20 0;
#X restore 117 48 pd fiducialProcessing;
#X obj 142 30 tgl 15 0 empty empty monitor 17 8 0 10 -262144 -1 -1
1 1;
#N canvas 314 415 450 300 goldfishLogo 0;
#X obj 39 49 tgl 15 0 empty empty empty 17 7 0 10 -262144 -1 -1 1 1
;
#X text 56 48 enable;
#N canvas 202 415 450 300 goldfishlogo-src 0;
#X obj 13 14 cnv 15 170 250 empty empty empty 20 12 0 14 -228992 -66577
0;
#X obj 17 173 cnv 15 160 60 empty empty empty 20 12 0 14 -24198 -66577
0;
#X obj 18 59 gemhead;
#X obj 18 211 pix_image;
#X obj 34 81 bng 15 250 50 0 empty empty empty 0 -6 0 8 -262144 -1
-1;
#N canvas 0 0 450 300 openpanel 0;
#X obj 114 62 inlet;
#X obj 121 254 outlet;
#X obj 114 125 openpanel;
#X msg 114 162 set open \$1;
#X obj 114 199 t b a;
#X connect 0 0 2 0;
#X connect 2 0 3 0;
#X connect 3 0 4 0;
#X connect 4 0 1 0;
#X connect 4 1 1 0;
#X restore 34 102 pd openpanel;
#X msg 34 125 open /home/goldfish/projects/puredata/LoH-LiveVideo/images/goldfishlogo.tif
;
#X msg 88 211 thread \$1;
#X obj 159 215 tgl 15 0 empty empty empty 17 7 0 10 -262144 -1 -1 0
1;
#X obj 18 41 tgl 15 0 empty empty empty 17 7 0 10 -262144 -1 -1 1 1
;
#X obj 18 21 inlet;
#X obj 18 240 outlet;
#X obj 18 181 alpha;
#X obj 127 23 loadbang;
#X connect 2 0 12 0;
#X connect 3 0 11 0;
#X connect 4 0 5 0;
#X connect 5 0 6 0;
#X connect 6 0 3 0;
#X connect 7 0 3 0;
#X connect 8 0 7 0;
#X connect 9 0 2 0;
#X connect 10 0 9 0;
#X connect 12 0 3 0;
#X connect 13 0 6 0;
#X restore 39 69 pd goldfishlogo-src;
#X obj 39 92 pix_texture;
#X obj 39 207 rectangle 1.4 1;
#X obj 39 184 rotateXYZ;
#N canvas 735 109 450 511 logoflipper 0;
#X obj 0 79 bng 15 250 50 0 empty empty empty 17 7 0 10 -262144 -1
-1;
#X obj 0 103 tgl 15 0 empty empty empty 17 7 0 10 -262144 -1 -1 0 1
;
#X floatatom 0 307 6 0 0 0 - - -;
#X msg 63 128 0;
#X obj 64 235 spigot 0;
#X obj 0 235 spigot 1;
#X obj 109 195 tgl 15 0 empty empty empty 17 7 0 10 -262144 -1 -1 0
57;
#X obj 109 215 invert;
#X obj 0 160 int;
#X obj 0 258 + 1;
#X obj 64 258 - 1;
#X obj 109 175 bng 15 250 50 0 empty empty empty 17 7 0 10 -262144
-1 -1;
#X obj 170 361 moses 1;
#X obj 219 361 moses 57;
#X obj 0 481 outlet;
#X obj 0 20 inlet;
#X obj 45 20 inlet;
#X obj 208 20 inlet;
#X obj 264 20 inlet;
#X obj 208 60 + 1;
#X obj 264 60 + 2;
#X text 96 20 sloppy slider;
#X text 210 3 min;
#X text 265 2 max;
#X text 47 4 rate;
#X text 2 3 start;
#X obj 167 405 bng 15 250 50 0 empty empty empty 17 7 0 10 -262144
-1 -1;
#X obj 0 128 metro 30;
#X obj 167 426 delay 100000;
#X obj 63 78 loadbang;
#X connect 0 0 1 0;
#X connect 1 0 27 0;
#X connect 2 0 12 0;
#X connect 2 0 13 0;
#X connect 2 0 14 0;
#X connect 3 0 8 0;
#X connect 4 0 10 0;
#X connect 5 0 9 0;
#X connect 6 0 7 0;
#X connect 6 0 5 1;
#X connect 7 0 4 1;
#X connect 8 0 5 0;
#X connect 8 0 4 0;
#X connect 9 0 2 0;
#X connect 9 0 8 1;
#X connect 10 0 2 0;
#X connect 10 0 8 1;
#X connect 11 0 6 0;
#X connect 12 0 0 0;
#X connect 12 0 11 0;
#X connect 12 0 26 0;
#X connect 13 1 0 0;
#X connect 13 1 11 0;
#X connect 13 1 26 0;
#X connect 15 0 0 0;
#X connect 16 0 27 1;
#X connect 17 0 19 0;
#X connect 18 0 20 0;
#X connect 19 0 12 1;
#X connect 20 0 13 1;
#X connect 26 0 28 0;
#X connect 27 0 8 0;
#X connect 28 0 0 0;
#X connect 29 0 3 0;
#X restore 56 158 pd logoflipper;
#X obj 56 137 bng 15 250 50 0 empty empty empty 17 7 0 10 -262144 -1
-1;
#X obj 39 115 translateXYZ 5.4 -2.7 0.11;
#X obj 39 16 inlet;
#X obj 78 16 inlet;
#X connect 0 0 2 0;
#X connect 2 0 3 0;
#X connect 3 0 8 0;
#X connect 5 0 4 0;
#X connect 6 0 5 1;
#X connect 7 0 6 0;
#X connect 8 0 5 0;
#X connect 9 0 0 0;
#X connect 10 0 7 0;
#X restore 4 61 pd goldfishLogo;
#X obj 292 413 pix_flip;
#X msg 300 391 horizontal;
#X obj 206 29 tgl 15 0 empty empty dot/text 17 8 0 10 -262144 -1 -1
1 1;
#X obj 4 42 tgl 15 0 empty empty empty 17 7 0 10 -262144 -1 -1 1 1
;
#X obj 38 107 gemhead;
#X msg 6 128 bang;
#N canvas 447 330 450 361 cameraFX 0;
#X obj 10 7 inlet;
#X obj 50 295 outlet;
#X obj 55 7 inlet;
#X obj 100 7 inlet;
#N canvas 0 447 450 300 5waySwitcher 0;
#X obj 14 11 inlet;
#X obj 98 11 inlet;
#X obj 14 271 outlet;
#X obj 74 271 outlet;
#X obj 134 271 outlet;
#X obj 194 271 outlet;
#X obj 254 271 outlet;
#X msg 47 167 1;
#X msg 77 167 0;
#X msg 107 167 1;
#X msg 137 167 0;
#X msg 167 167 1;
#X msg 197 167 0;
#X msg 227 167 1;
#X msg 257 167 0;
#X msg 287 167 1;
#X msg 317 167 0;
#X obj 98 61 hradio 15 1 0 5 empty empty empty 0 -8 0 10 -262144 -1
-1 1;
#X obj 14 198 spigot;
#X obj 74 198 spigot;
#X obj 134 198 spigot;
#X obj 194 198 spigot;
#X obj 254 198 spigot;
#X obj 153 84 select 0 1 2 3 4;
#X obj 270 12 inlet;
#X obj 148 35 random 5;
#X obj 148 15 bng 15 250 50 0 empty empty empty 17 7 0 10 -262144 -1
-1;
#X text 240 57 bang inlet 2 for random;
#X obj 343 271 outlet;
#X text 239 40 Send 0 through 4 to inlet 1 to set;
#X connect 0 0 18 0;
#X connect 0 0 19 0;
#X connect 0 0 20 0;
#X connect 0 0 21 0;
#X connect 0 0 22 0;
#X connect 1 0 17 0;
#X connect 7 0 18 1;
#X connect 8 0 18 1;
#X connect 9 0 19 1;
#X connect 10 0 19 1;
#X connect 11 0 20 1;
#X connect 12 0 20 1;
#X connect 13 0 21 1;
#X connect 14 0 21 1;
#X connect 15 0 22 1;
#X connect 16 0 22 1;
#X connect 17 0 23 0;
#X connect 17 0 28 0;
#X connect 18 0 2 0;
#X connect 19 0 3 0;
#X connect 20 0 4 0;
#X connect 21 0 5 0;
#X connect 22 0 6 0;
#X connect 23 0 7 0;
#X connect 23 0 10 0;
#X connect 23 0 12 0;
#X connect 23 0 14 0;
#X connect 23 0 16 0;
#X connect 23 1 9 0;
#X connect 23 1 8 0;
#X connect 23 1 12 0;
#X connect 23 1 14 0;
#X connect 23 1 16 0;
#X connect 23 2 11 0;
#X connect 23 2 8 0;
#X connect 23 2 10 0;
#X connect 23 2 14 0;
#X connect 23 2 16 0;
#X connect 23 3 13 0;
#X connect 23 3 16 0;
#X connect 23 3 12 0;
#X connect 23 3 10 0;
#X connect 23 3 8 0;
#X connect 23 4 15 0;
#X connect 23 4 14 0;
#X connect 23 4 12 0;
#X connect 23 4 10 0;
#X connect 23 4 8 0;
#X connect 24 0 26 0;
#X connect 25 0 17 0;
#X connect 26 0 25 0;
#X restore 167 116 pd 5waySwitcher;
#X obj 268 116 hradio 15 1 0 5 empty empty empty 0 -8 0 10 -262144
-1 -1 1;
#X obj 268 139 bng 15 250 50 0 empty empty empty 17 7 0 10 -262144
-1 -1;
#X text 216 199 Solarize;
#X text 141 199 Posterize;
#X text 366 199 Tile;
#N canvas 231 257 432 437 FXchan1 0;
#X obj -18 -165 inlet;
#X obj 96 -165 inlet;
#X obj -18 229 outlet;
#N canvas 367 211 458 427 ChromiumVFX 0;
#X obj 12 3 inlet;
#X obj 57 99 vsl 30 80 0 1 0 0 empty empty edge_1 -2 -9 0 8 -262144
-1 -1 3429 1;
#X obj 12 309 outlet;
#X floatatom 57 188 5 0 0 0 - - -;
#X obj 107 99 vsl 30 80 0 1 0 0 empty empty edge_2 -2 -9 0 8 -262144
-1 -1 2149 1;
#X floatatom 107 188 5 0 0 0 - - -;
#X obj 157 99 vsl 30 80 0 1 0 0 empty empty red -2 -9 0 8 -262144 -1
-1 158 1;
#X floatatom 157 188 5 0 0 0 - - -;
#X obj 207 99 vsl 30 80 0 1 0 0 empty empty green -2 -9 0 8 -262144
-1 -1 4945 1;
#X floatatom 207 188 5 0 0 0 - - -;
#X obj 257 99 vsl 30 80 0 1 0 0 empty empty blue -2 -9 0 8 -262144
-1 -1 1991 1;
#X floatatom 257 188 5 0 0 0 - - -;
#X obj 226 71 bng 15 250 50 0 empty empty defaults 17 7 0 8 -262144
-1 -1;
#X obj 57 53 nbx 4 14 0 1 0 1 empty empty empty 0 -8 0 10 -262144 -1
-1 0.04 256;
#X obj 107 53 nbx 4 14 1 4 0 1 empty empty empty 0 -8 0 10 -262144
-1 -1 1 256;
#X obj 157 53 nbx 4 14 0 1 0 1 empty empty empty 0 -8 0 10 -262144
-1 -1 0.51 256;
#X obj 207 53 nbx 4 14 0 1 0 1 empty empty empty 0 -8 0 10 -262144
-1 -1 0.85 256;
#X obj 257 53 nbx 4 14 0 1 0 1 empty empty empty 0 -8 0 10 -262144
-1 -1 0.68 256;
#X text 53 70 ChromiumVFX;
#X obj 12 271 pix_freeframe ./plugins/ChromiumVFX;
#X text 69 307 This effect alters the colours in the image to give
it an other worldly look. It's inspired by the free photoshop filter
of the same name.;
#X text 14 364 Uses the Pete's Plugins freeframe plugin Chromium. http://www.petewarden.com
;
#X obj 57 3 inlet;
#X obj 107 3 inlet;
#X obj 157 3 inlet;
#X obj 207 3 inlet;
#X obj 257 3 inlet;
#X obj 307 3 inlet;
#X connect 0 0 19 0;
#X connect 1 0 3 0;
#X connect 3 0 19 1;
#X connect 4 0 5 0;
#X connect 5 0 19 2;
#X connect 6 0 7 0;
#X connect 7 0 19 3;
#X connect 8 0 9 0;
#X connect 9 0 19 4;
#X connect 10 0 11 0;
#X connect 11 0 19 5;
#X connect 12 0 13 0;
#X connect 12 0 14 0;
#X connect 12 0 15 0;
#X connect 12 0 16 0;
#X connect 12 0 17 0;
#X connect 13 0 1 0;
#X connect 14 0 4 0;
#X connect 15 0 6 0;
#X connect 16 0 8 0;
#X connect 17 0 10 0;
#X connect 19 0 2 0;
#X connect 22 0 1 0;
#X connect 23 0 4 0;
#X connect 24 0 6 0;
#X connect 25 0 8 0;
#X connect 26 0 10 0;
#X connect 27 0 12 0;
#X coords 0 -1 1 1 245 135 2 50 50;
#X restore -18 64 pd ChromiumVFX;
#X obj 38 -165 inlet;
#X obj 96 -102 hradio 15 1 0 7 empty empty empty 0 -8 0 10 -262144
-1 -1 6;
#X obj 38 -137 random 7;
#X text 213 -78 0 for random. 1+ for presets;
#N canvas 698 163 450 300 chromiumPresets 0;
#X obj 10 6 inlet;
#X obj 380 6 inlet;
#X obj 10 266 outlet;
#X obj 60 266 outlet;
#X obj 110 266 outlet;
#X obj 160 266 outlet;
#X obj 210 266 outlet;
#X obj 10 204 unpack f f f f f f;
#X msg 101 180 0.434 0.272 0.02 0.626 0.252 1;
#X msg 25 80 0.747 0.03 0.636 0.929 0.02 1;
#X msg 55 120 0.697 0.888 0.404 0.727 0.818 0;
#X msg 40 100 0.626 0.444 0.939 0.05 0.969 1;
#X msg 71 140 0.03 0.363 0.636 0.373 0.949 0;
#X msg 86 160 0.272 0.424 0.828 0.676 0.07 0;
#X obj 10 36 select 0 1 2 3 4 5 6 7 8 9;
#N canvas 0 0 450 300 fullRandomchromium 0;
#X obj 41 93 random 99;
#X obj 41 117 / 99;
#X obj 41 68 bng 15 250 50 0 empty empty empty 17 7 0 10 -262144 -1
-1;
#X obj 101 93 random 99;
#X obj 101 117 / 99;
#X obj 101 68 bng 15 250 50 0 empty empty empty 17 7 0 10 -262144 -1
-1;
#X obj 161 93 random 99;
#X obj 161 117 / 99;
#X obj 161 68 bng 15 250 50 0 empty empty empty 17 7 0 10 -262144 -1
-1;
#X obj 221 93 random 99;
#X obj 221 117 / 99;
#X obj 221 68 bng 15 250 50 0 empty empty empty 17 7 0 10 -262144 -1
-1;
#X obj 281 93 random 99;
#X obj 281 117 / 99;
#X obj 281 68 bng 15 250 50 0 empty empty empty 17 7 0 10 -262144 -1
-1;
#X obj 341 68 bng 15 250 50 0 empty empty empty 17 7 0 10 -262144 -1
-1;
#X obj 341 93 random 2;
#X obj 41 -34 inlet;
#X obj 248 183 pack f f f f f f;
#X obj 248 209 outlet;
#X connect 0 0 1 0;
#X connect 1 0 18 0;
#X connect 2 0 0 0;
#X connect 3 0 4 0;
#X connect 4 0 18 1;
#X connect 5 0 3 0;
#X connect 6 0 7 0;
#X connect 7 0 18 2;
#X connect 8 0 6 0;
#X connect 9 0 10 0;
#X connect 10 0 18 3;
#X connect 11 0 9 0;
#X connect 12 0 13 0;
#X connect 13 0 18 4;
#X connect 14 0 12 0;
#X connect 15 0 16 0;
#X connect 16 0 18 5;
#X connect 17 0 2 0;
#X connect 17 0 5 0;
#X connect 17 0 8 0;
#X connect 17 0 11 0;
#X connect 17 0 14 0;
#X connect 17 0 15 0;
#X connect 18 0 19 0;
#X restore 10 60 pd fullRandomchromium;
#X connect 0 0 14 0;
#X connect 7 0 2 0;
#X connect 7 1 3 0;
#X connect 7 2 4 0;
#X connect 7 3 5 0;
#X connect 7 4 6 0;
#X connect 8 0 7 0;
#X connect 9 0 7 0;
#X connect 10 0 7 0;
#X connect 11 0 7 0;
#X connect 12 0 7 0;
#X connect 13 0 7 0;
#X connect 14 0 15 0;
#X connect 14 1 9 0;
#X connect 14 2 11 0;
#X connect 14 3 10 0;
#X connect 14 4 12 0;
#X connect 14 5 13 0;
#X connect 14 6 8 0;
#X connect 15 0 7 0;
#X restore 96 -81 pd chromiumPresets;
#X obj 61 10 r fid0000x;
#X obj 97 30 r fid0000y;
#X obj 21 -12 r fid0000angle;
#X connect 0 0 3 0;
#X connect 1 0 5 0;
#X connect 3 0 2 0;
#X connect 4 0 6 0;
#X connect 5 0 8 0;
#X connect 6 0 5 0;
#X connect 8 0 3 1;
#X connect 8 1 3 2;
#X connect 8 2 3 3;
#X connect 8 3 3 4;
#X connect 8 4 3 5;
#X connect 9 0 3 2;
#X connect 11 0 3 1;
#X restore 67 183 pd FXchan1;
#N canvas 338 345 484 370 FXchan2 0;
#N canvas 101 275 437 401 PosterizeVFX 0;
#X obj 12 6 inlet;
#X obj 57 83 vsl 30 80 0 1 0 0 empty empty colours -2 -9 0 8 -262144
-1 -1 798 1;
#X obj 12 279 outlet;
#X floatatom 57 168 5 0 0 0 - - -;
#X obj 93 85 bng 15 250 50 0 empty empty default 17 7 0 8 -262144 -1
-1;
#X obj 57 32 nbx 4 14 0 1 0 1 empty empty empty 0 -8 0 10 -262144 -1
-1 0.04 256;
#X text 53 50 PosterizeVFX;
#X obj 12 241 pix_freeframe ./plugins/PosterizeVFX;
#X text 69 277 This effect reduces the number of colours available
to the image.;
#X text 14 334 Uses the Pete's Plugins freeframe plugin Posterize.
http://www.petewarden.com;
#X obj 57 6 inlet;
#X obj 107 6 inlet;
#X connect 0 0 7 0;
#X connect 1 0 3 0;
#X connect 3 0 7 1;
#X connect 4 0 5 0;
#X connect 5 0 1 0;
#X connect 7 0 2 0;
#X connect 10 0 1 0;
#X connect 11 0 4 0;
#X coords 0 -1 1 1 105 135 2 50 50;
#X restore 106 142 pd PosterizeVFX;
#X obj 106 -1 inlet;
#X obj 155 -1 inlet;
#X obj 217 -1 inlet;
#X obj 106 308 outlet;
#X obj 155 87 hradio 15 1 0 7 empty empty empty 0 -8 0 10 -262144 -1
-1 3;
#X obj 155 42 random 7;
#X text 262 88 0 for random. 1+ for presets;
#N canvas 824 403 450 300 posterizePresets 0;
#X obj 10 6 inlet;
#X obj 380 6 inlet;
#X obj 10 36 select 0 1 2 3 4 5 6 7 8 9;
#N canvas 258 412 450 300 fullRandomposterize 0;
#X obj 41 117 / 99;
#X obj 41 68 bng 15 250 50 0 empty empty empty 17 7 0 10 -262144 -1
-1;
#X obj 41 -34 inlet;
#X obj 152 209 outlet;
#X obj 41 93 random 18;
#X connect 0 0 3 0;
#X connect 1 0 4 0;
#X connect 2 0 1 0;
#X connect 4 0 0 0;
#X restore 10 60 pd fullRandomposterize;
#X obj 10 244 outlet;
#X msg 25 80 0.05;
#X msg 40 100 0.171;
#X msg 55 120 0.101;
#X msg 71 140 0.026;
#X msg 86 160 0.037;
#X msg 101 180 0.076;
#X connect 0 0 2 0;
#X connect 2 0 3 0;
#X connect 2 1 5 0;
#X connect 2 2 6 0;
#X connect 2 3 7 0;
#X connect 2 4 8 0;
#X connect 2 5 9 0;
#X connect 2 6 10 0;
#X connect 3 0 4 0;
#X connect 5 0 4 0;
#X connect 6 0 4 0;
#X connect 7 0 4 0;
#X connect 8 0 4 0;
#X connect 9 0 4 0;
#X connect 10 0 4 0;
#X restore 155 108 pd posterizePresets;
#X obj 10 78 r fid0009angle;
#X obj 10 103 * 0.3;
#X connect 0 0 4 0;
#X connect 1 0 0 0;
#X connect 2 0 6 0;
#X connect 3 0 5 0;
#X connect 5 0 8 0;
#X connect 6 0 5 0;
#X connect 8 0 0 1;
#X connect 9 0 10 0;
#X connect 10 0 0 1;
#X restore 142 183 pd FXchan2;
#N canvas 745 382 454 317 FXchan3 0;
#N canvas 197 248 437 372 SolarizeVFX 0;
#X obj 12 6 inlet;
#X obj 157 83 vsl 30 80 0 1 0 0 empty empty end -2 -9 0 8 -262144 -1
-1 5024 1;
#X obj 12 279 outlet;
#X floatatom 157 168 5 0 0 0 - - -;
#X obj 157 29 nbx 4 14 0 1 0 1 empty empty empty 0 -8 0 10 -262144
-1 -1 0.784 256;
#X obj 107 83 vsl 30 80 0 1 0 0 empty empty start -2 -9 0 8 -262144
-1 -1 2868 1;
#X floatatom 107 168 5 0 0 0 - - -;
#X obj 107 29 nbx 4 14 0 1 0 1 empty empty empty 0 -8 0 10 -262144
-1 -1 0.24 256;
#X obj 57 83 vsl 30 80 0.01 1 1 0 empty empty thresh -2 -9 0 8 -262144
-1 -1 1885 1;
#X floatatom 57 168 5 0 0 0 - - -;
#X obj 57 29 nbx 4 14 0 1 0 1 empty empty empty 0 -8 0 10 -262144 -1
-1 0.35 256;
#X obj 162 52 bng 15 250 50 0 empty empty defaults 17 7 0 8 -262144
-1 -1;
#X obj 207 83 vsl 30 80 0 1 0 0 empty empty floor -2 -9 0 8 -262144
-1 -1 2947 1;
#X floatatom 207 168 5 0 0 0 - - -;
#X obj 207 29 nbx 4 14 0 1 0 1 empty empty empty 0 -8 0 10 -262144
-1 -1 0.265 256;
#X obj 12 241 pix_freeframe ./plugins/SolarizeVFX;
#X obj 257 83 vsl 30 80 0 1 0 0 empty empty ceiling -2 -9 0 8 -262144
-1 -1 7497 1;
#X floatatom 257 168 5 0 0 0 - - -;
#X obj 257 29 nbx 4 14 0 1 0 1 empty empty empty 0 -8 0 10 -262144
-1 -1 0.81 256;
#X obj 247 52 tgl 15 0 empty empty limit 17 7 0 8 -262144 -1 -1 0 1
;
#X text 69 277 Smoothly changes between increasing and inverting colour
scales.;
#X text 14 334 Uses the Pete's Plugins freeframe plugin Solarize. http://www.petewarden.com
;
#X text 53 50 SolarizeVFX;
#X obj 52 6 inlet;
#X obj 92 6 inlet;
#X obj 132 6 inlet;
#X obj 172 6 inlet;
#X obj 212 6 inlet;
#X obj 252 6 inlet;
#X obj 292 6 inlet;
#X connect 0 0 15 0;
#X connect 1 0 3 0;
#X connect 3 0 15 3;
#X connect 4 0 1 0;
#X connect 5 0 6 0;
#X connect 6 0 15 2;
#X connect 7 0 5 0;
#X connect 8 0 9 0;
#X connect 9 0 15 1;
#X connect 10 0 8 0;
#X connect 11 0 10 0;
#X connect 11 0 7 0;
#X connect 11 0 4 0;
#X connect 11 0 14 0;
#X connect 11 0 18 0;
#X connect 12 0 13 0;
#X connect 13 0 15 5;
#X connect 14 0 12 0;
#X connect 15 0 2 0;
#X connect 16 0 17 0;
#X connect 17 0 15 6;
#X connect 18 0 16 0;
#X connect 19 0 15 4;
#X connect 23 0 8 0;
#X connect 24 0 5 0;
#X connect 25 0 1 0;
#X connect 26 0 12 0;
#X connect 27 0 16 0;
#X connect 28 0 19 0;
#X connect 29 0 11 0;
#X coords 0 -1 1 1 250 135 2 50 50;
#X restore 38 29 pd SolarizeVFX;
#X obj 38 -98 inlet;
#X obj 78 -98 inlet;
#X obj 136 -98 inlet;
#X obj 38 177 outlet;
#N canvas 698 163 450 300 solarizePresets 0;
#X obj 10 6 inlet;
#X obj 380 6 inlet;
#X obj 10 266 outlet;
#X obj 60 266 outlet;
#X obj 110 266 outlet;
#X obj 160 266 outlet;
#X obj 210 266 outlet;
#X obj 260 266 outlet;
#X obj 10 204 unpack f f f f f f;
#X msg 101 180 0.434 0.272 0.02 0.626 0.252 1;
#X msg 25 80 0.747 0.03 0.636 0.929 0.02 1;
#X msg 55 120 0.697 0.888 0.404 0.727 0.818 0;
#X msg 40 100 0.626 0.444 0.939 0.05 0.969 1;
#X msg 71 140 0.03 0.363 0.636 0.373 0.949 0;
#X msg 86 160 0.272 0.424 0.828 0.676 0.07 0;
#X obj 10 36 select 0 1 2 3 4 5 6 7 8 9;
#N canvas 0 0 450 300 fullRandomsolarize 0;
#X obj 41 93 random 99;
#X obj 41 117 / 99;
#X obj 41 68 bng 15 250 50 0 empty empty empty 17 7 0 10 -262144 -1
-1;
#X obj 101 93 random 99;
#X obj 101 117 / 99;
#X obj 101 68 bng 15 250 50 0 empty empty empty 17 7 0 10 -262144 -1
-1;
#X obj 161 93 random 99;
#X obj 161 117 / 99;
#X obj 161 68 bng 15 250 50 0 empty empty empty 17 7 0 10 -262144 -1
-1;
#X obj 221 93 random 99;
#X obj 221 117 / 99;
#X obj 221 68 bng 15 250 50 0 empty empty empty 17 7 0 10 -262144 -1
-1;
#X obj 281 93 random 99;
#X obj 281 117 / 99;
#X obj 281 68 bng 15 250 50 0 empty empty empty 17 7 0 10 -262144 -1
-1;
#X obj 341 68 bng 15 250 50 0 empty empty empty 17 7 0 10 -262144 -1
-1;
#X obj 341 93 random 2;
#X obj 41 -34 inlet;
#X obj 248 183 pack f f f f f f;
#X obj 248 209 outlet;
#X connect 0 0 1 0;
#X connect 1 0 18 0;
#X connect 2 0 0 0;
#X connect 3 0 4 0;
#X connect 4 0 18 1;
#X connect 5 0 3 0;
#X connect 6 0 7 0;
#X connect 7 0 18 2;
#X connect 8 0 6 0;
#X connect 9 0 10 0;
#X connect 10 0 18 3;
#X connect 11 0 9 0;
#X connect 12 0 13 0;
#X connect 13 0 18 4;
#X connect 14 0 12 0;
#X connect 15 0 16 0;
#X connect 16 0 18 5;
#X connect 17 0 2 0;
#X connect 17 0 5 0;
#X connect 17 0 8 0;
#X connect 17 0 11 0;
#X connect 17 0 14 0;
#X connect 17 0 15 0;
#X connect 18 0 19 0;
#X restore 10 60 pd fullRandomsolarize;
#X connect 0 0 15 0;
#X connect 8 0 2 0;
#X connect 8 1 3 0;
#X connect 8 2 4 0;
#X connect 8 3 5 0;
#X connect 8 4 6 0;
#X connect 8 5 7 0;
#X connect 9 0 8 0;
#X connect 10 0 8 0;
#X connect 11 0 8 0;
#X connect 12 0 8 0;
#X connect 13 0 8 0;
#X connect 14 0 8 0;
#X connect 15 0 16 0;
#X connect 15 1 10 0;
#X connect 15 2 12 0;
#X connect 15 3 11 0;
#X connect 15 4 13 0;
#X connect 15 5 14 0;
#X connect 15 6 9 0;
#X connect 16 0 8 0;
#X restore 136 -21 pd solarizePresets;
#X obj 136 -42 hradio 15 1 0 7 empty empty empty 0 -8 0 10 -262144
-1 -1 4;
#X obj 78 -77 random 7;
#X text 253 -18 0 for random. 1+ for presets;
#X obj 45 -32 r fid0001angle;
#X obj 168 -2 r fid0001y;
#X obj 101 -2 r fid0001x;
#X connect 0 0 4 0;
#X connect 1 0 0 0;
#X connect 2 0 7 0;
#X connect 3 0 6 0;
#X connect 5 0 0 1;
#X connect 5 1 0 2;
#X connect 5 2 0 3;
#X connect 5 3 0 4;
#X connect 5 4 0 5;
#X connect 5 5 0 6;
#X connect 6 0 5 0;
#X connect 7 0 6 0;
#X connect 9 0 0 1;
#X connect 10 0 0 3;
#X connect 11 0 0 2;
#X restore 217 183 pd FXchan3;
#N canvas 474 176 626 516 FXchan4 0;
#X obj -356 -106 inlet;
#X obj -356 341 outlet;
#X obj -317 -106 inlet;
#X obj -259 -106 inlet;
#X obj -356 302 pix_kaleidoscope;
#X floatatom -175 269 5 0.1 10 1 sap - -;
#X floatatom -191 253 5 0 1 1 rlp - -;
#X obj -206 232 pack;
#X obj -152 232 t b f;
#X floatatom -206 193 4 0 100 0 - - -;
#X floatatom -154 193 4 0 100 0 - - -;
#X obj -206 212 * 0.01;
#X obj -154 212 * 0.01;
#X obj -317 269 pack;
#X obj -303 211 t b f;
#X floatatom -317 230 4 0 100 0 - - -;
#X floatatom -305 172 4 0 100 0 - - -;
#X obj -317 249 * 0.01;
#X obj -305 191 * 0.01;
#X text -107 83 Inlet 1: gemlist;
#X text -107 100 Inlet 2: float: number of segments (0..64 \, default:
7);
#X text -107 117 Inlet 3: float: rotation of the input-segment (in
degree);
#X text -107 134 Inlet 4: list <x> <y>: normalized center-position
of the of the segment of the input image. (0..1 \, default 0.5);
#X text -107 164 Inlet 5: float: rotation of the output-segment (in
degree);
#X text -107 182 Inlet 6: list <x> <y>: normalized center-position
of the of the segments in the output image. (0..1 \, default 0.5);
#X text -107 210 Inlet 7: float: reflection line proportion \, controls
the relative sizes of each pair of adjacent segments in the output
image (0..1 \, default 0.5);
#X text -107 257 Inlet 8: float: source angle proportion \, sets the
angular size of the source segment \, relative to the size of the output
segment \; altering this value will squash or expand (0.1..10 \, default:
1);
#X obj -259 -47 hradio 15 1 0 7 empty empty empty 0 -8 0 10 -262144
-1 -1 3;
#X obj -317 -82 random 7;
#X text -121 -23 0 for random. 1+ for presets;
#N canvas 793 158 450 300 kaleidoscopePresets 0;
#X obj 10 6 inlet;
#X obj 10 266 outlet;
#X obj 60 266 outlet;
#X obj 110 266 outlet;
#X obj 160 266 outlet;
#X obj 210 266 outlet;
#X obj 260 266 outlet;
#X obj 10 36 select 0 1 2 3 4 5 6 7 8 9;
#N canvas 95 415 450 300 fullRandomkaleidoscope 0;
#X obj 41 68 bng 15 250 50 0 empty empty empty 17 7 0 10 -262144 -1
-1;
#X obj 101 68 bng 15 250 50 0 empty empty empty 17 7 0 10 -262144 -1
-1;
#X obj 167 68 bng 15 250 50 0 empty empty empty 17 7 0 10 -262144 -1
-1;
#X obj 233 68 bng 15 250 50 0 empty empty empty 17 7 0 10 -262144 -1
-1;
#X obj 287 68 bng 15 250 50 0 empty empty empty 17 7 0 10 -262144 -1
-1;
#X obj 287 93 random 2;
#X obj 41 -34 inlet;
#X obj 108 199 outlet;
#X obj 41 93 random 13;
#X obj 108 173 pack f f f f f f f;
#X obj 101 93 random 360;
#X obj 167 93 random 360;
#X obj 233 93 random 2;
#X connect 0 0 8 0;
#X connect 1 0 10 0;
#X connect 2 0 11 0;
#X connect 3 0 12 0;
#X connect 4 0 5 0;
#X connect 5 0 9 6;
#X connect 6 0 0 0;
#X connect 6 0 1 0;
#X connect 6 0 2 0;
#X connect 6 0 3 0;
#X connect 6 0 4 0;
#X connect 8 0 9 0;
#X connect 9 0 7 0;
#X connect 10 0 9 1;
#X connect 11 0 9 3;
#X connect 12 0 9 5;
#X restore 10 60 pd fullRandomkaleidoscope;
#X obj 10 204 unpack f f f f f f f;
#X obj 310 266 outlet;
#X msg 55 120 4 310 0 289 0 0 0;
#X msg 25 80 2 246 0 171 0 0 0;
#X msg 40 100 3 154 0 83 0 0 0;
#X msg 71 140 5 230 0 55 0 0 0;
#X msg 86 160 6 28 0 125 0 0 0;
#X msg 101 180 7 311 0 110 0 0 0;
#X connect 0 0 7 0;
#X connect 7 0 8 0;
#X connect 7 1 12 0;
#X connect 7 2 13 0;
#X connect 7 3 11 0;
#X connect 7 4 14 0;
#X connect 7 5 15 0;
#X connect 7 6 16 0;
#X connect 8 0 9 0;
#X connect 9 0 1 0;
#X connect 9 1 2 0;
#X connect 9 2 3 0;
#X connect 9 3 4 0;
#X connect 9 4 5 0;
#X connect 9 5 6 0;
#X connect 9 6 10 0;
#X connect 11 0 9 0;
#X connect 12 0 9 0;
#X connect 13 0 9 0;
#X connect 14 0 9 0;
#X connect 15 0 9 0;
#X connect 16 0 9 0;
#X restore -259 -26 pd kaleidoscopePresets;
#X floatatom -343 60 5 0 0 0 - - -;
#X floatatom -308 60 5 0 0 0 - - -;
#X floatatom -273 60 5 0 0 0 - - -;
#X obj -228 37 r wiimoteXacc;
#X obj -208 86 r wiimoteYacc;
#X obj -208 110 * 360;
#X obj -228 60 * 180;
#X connect 0 0 4 0;
#X connect 2 0 28 0;
#X connect 3 0 27 0;
#X connect 4 0 1 0;
#X connect 5 0 4 7;
#X connect 6 0 4 6;
#X connect 7 0 4 5;
#X connect 8 0 7 0;
#X connect 8 1 7 1;
#X connect 9 0 11 0;
#X connect 10 0 12 0;
#X connect 11 0 7 0;
#X connect 12 0 8 0;
#X connect 13 0 4 3;
#X connect 14 0 13 0;
#X connect 14 1 13 1;
#X connect 15 0 17 0;
#X connect 16 0 18 0;
#X connect 17 0 13 0;
#X connect 18 0 14 0;
#X connect 27 0 30 0;
#X connect 28 0 27 0;
#X connect 30 0 31 0;
#X connect 30 1 32 0;
#X connect 30 3 33 0;
#X connect 31 0 4 1;
#X connect 32 0 4 2;
#X connect 33 0 4 4;
#X connect 34 0 37 0;
#X connect 35 0 36 0;
#X connect 36 0 4 2;
#X connect 37 0 4 4;
#X restore 292 183 pd FXchan4;
#N canvas 146 236 450 442 FXchan5 0;
#N canvas 106 270 437 372 TileVFX 0;
#X obj 12 6 inlet;
#X obj 157 83 vsl 30 80 0 1 0 0 empty empty width -2 -9 0 8 -262144
-1 -1 6857 1;
#X obj 12 279 outlet;
#X floatatom 157 168 5 0 0 0 - - -;
#X obj 157 31 nbx 4 14 0 1 0 1 empty empty empty 0 -8 0 10 -262144
-1 -1 0.2 256;
#X obj 207 83 vsl 30 80 0 1 0 0 empty empty height -2 -9 0 8 -262144
-1 -1 798 1;
#X floatatom 207 168 5 0 0 0 - - -;
#X obj 207 31 nbx 4 14 0 1 0 1 empty empty empty 0 -8 0 10 -262144
-1 -1 0.2 256;
#X obj 107 83 vsl 30 80 0 1 0 0 empty empty skew -2 -9 0 8 -262144
-1 -1 7655 1;
#X floatatom 107 168 5 0 0 0 - - -;
#X obj 107 31 nbx 4 14 0 1 0 1 empty empty empty 0 -8 0 10 -262144
-1 -1 0.5 256;
#X obj 57 83 vsl 30 80 0 1 0 0 empty empty angle -2 -9 0 8 -262144
-1 -1 474 1;
#X floatatom 57 168 5 0 0 0 - - -;
#X obj 57 31 nbx 4 14 0 1 0 1 empty empty empty 0 -8 0 10 -262144 -1
-1 0.5 256;
#X obj 12 241 pix_freeframe ./plugins/TileVFX;
#X text 53 50 TileVFX;
#X obj 172 52 bng 15 250 50 0 empty empty defaults 17 7 0 8 -262144
-1 -1;
#X text 69 277 A rectangular part of the image is tiled and mirrored.
;
#X text 14 334 Uses the Pete's Plugins freeframe plugin Tile. http://www.petewarden.com
;
#X obj 52 6 inlet;
#X obj 92 6 inlet;
#X obj 132 6 inlet;
#X obj 172 6 inlet;
#X obj 212 6 inlet;
#X connect 0 0 14 0;
#X connect 1 0 3 0;
#X connect 3 0 14 3;
#X connect 4 0 1 0;
#X connect 5 0 6 0;
#X connect 6 0 14 4;
#X connect 7 0 5 0;
#X connect 8 0 9 0;
#X connect 9 0 14 2;
#X connect 10 0 8 0;
#X connect 11 0 12 0;
#X connect 12 0 14 1;
#X connect 13 0 11 0;
#X connect 14 0 2 0;
#X connect 16 0 13 0;
#X connect 16 0 10 0;
#X connect 16 0 4 0;
#X connect 16 0 7 0;
#X connect 19 0 11 0;
#X connect 20 0 8 0;
#X connect 21 0 1 0;
#X connect 22 0 5 0;
#X connect 23 0 16 0;
#X coords 0 -1 1 1 200 135 2 50 50;
#X restore 19 98 pd TileVFX;
#X obj 19 -42 inlet;
#X obj 64 -42 inlet;
#X obj 126 -42 inlet;
#X obj 19 244 outlet;
#X obj 126 28 hradio 15 1 0 7 empty empty empty 0 -8 0 10 -262144 -1
-1 3;
#X obj 64 -17 random 7;
#X text 233 29 0 for random. 1+ for presets;
#N canvas 723 41 450 300 tilePresets 0;
#X obj 10 6 inlet;
#X obj 380 6 inlet;
#X obj 10 266 outlet;
#X obj 60 266 outlet;
#X obj 110 266 outlet;
#X obj 160 266 outlet;
#X obj 10 36 select 0 1 2 3 4 5 6 7 8 9;
#X msg 25 80 0 0 0.797 0.464;
#X obj 10 204 unpack f f f f;
#N canvas 0 0 450 300 fullRandomtile 0;
#X obj 41 93 random 99;
#X obj 41 117 / 99;
#X obj 41 68 bng 15 250 50 0 empty empty empty 17 7 0 10 -262144 -1
-1;
#X obj 101 93 random 99;
#X obj 101 117 / 99;
#X obj 101 68 bng 15 250 50 0 empty empty empty 17 7 0 10 -262144 -1
-1;
#X obj 161 93 random 99;
#X obj 161 117 / 99;
#X obj 161 68 bng 15 250 50 0 empty empty empty 17 7 0 10 -262144 -1
-1;
#X obj 221 93 random 99;
#X obj 221 117 / 99;
#X obj 221 68 bng 15 250 50 0 empty empty empty 17 7 0 10 -262144 -1
-1;
#X obj 41 -34 inlet;
#X obj 152 209 outlet;
#X obj 152 183 pack f f f f;
#X connect 0 0 1 0;
#X connect 1 0 14 0;
#X connect 2 0 0 0;
#X connect 3 0 4 0;
#X connect 4 0 14 1;
#X connect 5 0 3 0;
#X connect 6 0 7 0;
#X connect 7 0 14 2;
#X connect 8 0 6 0;
#X connect 9 0 10 0;
#X connect 10 0 14 3;
#X connect 11 0 9 0;
#X connect 12 0 2 0;
#X connect 12 0 5 0;
#X connect 12 0 8 0;
#X connect 12 0 11 0;
#X connect 14 0 13 0;
#X restore 10 60 pd fullRandomtile;
#X msg 40 100 0.161 0.434 0.878 0.515;
#X msg 55 120 0.06 0.969 0.868 0.101;
#X msg 71 140 0.888 0.888 0.404 0.606;
#X msg 86 160 0.747 0.444 0.787 0.04;
#X msg 101 180 0.782 0.464 0.886 0.914;
#X connect 0 0 6 0;
#X connect 6 0 9 0;
#X connect 6 1 7 0;
#X connect 6 2 10 0;
#X connect 6 3 11 0;
#X connect 6 4 12 0;
#X connect 6 5 13 0;
#X connect 6 6 14 0;
#X connect 7 0 8 0;
#X connect 8 0 2 0;
#X connect 8 1 3 0;
#X connect 8 2 4 0;
#X connect 8 3 5 0;
#X connect 9 0 8 0;
#X connect 10 0 8 0;
#X connect 11 0 8 0;
#X connect 12 0 8 0;
#X connect 13 0 8 0;
#X connect 14 0 8 0;
#X restore 126 49 pd tilePresets;
#X obj 30 48 r fid0008angle;
#X obj 287 49 r fid0008y;
#X obj 221 49 r fid0008x;
#X connect 0 0 4 0;
#X connect 1 0 0 0;
#X connect 2 0 6 0;
#X connect 3 0 5 0;
#X connect 5 0 8 0;
#X connect 6 0 5 0;
#X connect 8 0 0 1;
#X connect 8 1 0 2;
#X connect 8 2 0 3;
#X connect 8 3 0 4;
#X connect 9 0 0 1;
#X connect 10 0 0 4;
#X connect 11 0 0 3;
#X restore 367 183 pd FXchan5;
#X text 67 199 Chromium;
#X text 291 199 Kaleidoscope;
#X obj 210 60 r fxChooser;
#X obj 10 92 spigot 1;
#X obj 66 92 spigot 0;
#X obj 78 69 invert;
#X obj 145 31 tgl 15 0 empty empty empty 17 7 0 10 -262144 -1 -1 0
1;
#X obj 145 7 inlet;
#X connect 0 0 18 0;
#X connect 0 0 19 0;
#X connect 2 0 4 1;
#X connect 3 0 4 2;
#X connect 4 0 10 0;
#X connect 4 1 11 0;
#X connect 4 2 12 0;
#X connect 4 3 13 0;
#X connect 4 4 14 0;
#X connect 4 5 5 0;
#X connect 5 0 6 0;
#X connect 6 0 14 1;
#X connect 6 0 13 1;
#X connect 6 0 12 1;
#X connect 6 0 11 1;
#X connect 6 0 10 1;
#X connect 10 0 1 0;
#X connect 11 0 1 0;
#X connect 12 0 1 0;
#X connect 13 0 1 0;
#X connect 14 0 1 0;
#X connect 17 0 4 1;
#X connect 18 0 1 0;
#X connect 19 0 4 0;
#X connect 20 0 19 1;
#X connect 21 0 20 0;
#X connect 21 0 18 1;
#X connect 22 0 21 0;
#X restore 292 202 pd cameraFX;
#X obj 83 42 bng 15 250 50 0 empty empty empty 17 7 0 10 -262144 -1
-1;
#X obj 300 370 loadbang;
#X obj 318 549 tgl 15 0 empty empty empty 17 7 0 10 -262144 -1 -1 0
1;
#N canvas 494 395 450 300 toggleMetaimage 0;
#X obj 19 1 inlet;
#X obj 86 1 inlet;
#X obj 19 259 outlet;
#X obj 74 176 pix_metaimage;
#X obj 85 116 tgl 15 0 empty empty empty 0 -6 0 8 -262144 -1 -1 0 1
;
#X msg 85 134 cheap \$1;
#X obj 149 116 tgl 15 0 empty empty empty 0 -6 0 8 -262144 -1 -1 0
1;
#X msg 149 134 distance \$1;
#X obj 86 39 tgl 15 0 empty empty empty 17 7 0 10 -262144 -1 -1 0 1
;
#X obj 31 61 invert;
#X obj 136 1 inlet;
#X obj 186 1 inlet;
#X obj 236 1 inlet;
#X obj 19 83 spigot 0;
#X obj 74 83 spigot 1;
#X obj 241 208 s fid0004x;
#X obj 275 188 s fid0004y;
#X obj 232 63 r fid0004angle;
#X connect 0 0 13 0;
#X connect 0 0 14 0;
#X connect 1 0 8 0;
#X connect 3 0 2 0;
#X connect 4 0 5 0;
#X connect 5 0 3 0;
#X connect 6 0 7 0;
#X connect 7 0 3 0;
#X connect 8 0 9 0;
#X connect 8 0 14 1;
#X connect 9 0 13 1;
#X connect 10 0 4 0;
#X connect 11 0 6 0;
#X connect 12 0 3 1;
#X connect 13 0 2 0;
#X connect 14 0 3 0;
#X connect 17 0 3 1;
#X restore 292 567 pd toggleMetaimage;
#X obj 344 549 tgl 15 0 empty empty empty 17 7 0 10 -262144 -1 -1 0
1;
#X obj 370 549 tgl 15 0 empty empty empty 17 7 0 10 -262144 -1 -1 0
1;
#X obj 38 88 tgl 15 0 empty empty empty 17 7 0 10 -262144 -1 -1 0 1
;
#N canvas 394 117 634 555 wiimoteInterface 0;
#X obj -28 257 wiibuttons lcross rcross ucross dcross a plus minus
home one two back;
#X obj -28 185 wiimote wiimote1;
#X msg 24 135 discover;
#X msg 34 155 disconnect;
#X msg 12 107 reportAcceleration \$1;
#X obj 12 87 tgl 15 0 empty empty empty 17 7 0 10 -262144 -1 -1 1 1
;
#X obj -28 22 tgl 15 0 empty empty empty 17 7 0 10 -262144 -1 -1 0
1;
#X msg -28 41 reportButtons \$1;
#X obj 212 388 wiiAcc raw;
#X msg 155 156 setLED \$1;
#X obj 155 116 tgl 15 0 empty empty empty 17 7 0 10 -262144 -1 -1 1
1;
#X obj 176 116 tgl 15 0 empty empty empty 17 7 0 10 -262144 -1 -1 0
1;
#X obj 197 116 tgl 15 0 empty empty empty 17 7 0 10 -262144 -1 -1 0
1;
#X obj 218 116 tgl 15 0 empty empty empty 17 7 0 10 -262144 -1 -1 1
1;
#N canvas 0 0 409 401 bytemask 0;
#X obj 269 332 outlet;
#X obj 269 279 float;
#X obj 318 183 |;
#X obj 110 239 -;
#X obj 110 204 float;
#X obj 110 184 trigger bang float;
#X obj 231 204 &;
#X obj 183 142 route 0 1;
#X msg 36 56 \$1 1;
#X msg 106 56 \$1 2;
#X msg 176 56 \$1 4;
#X msg 246 56 \$1 8;
#X obj 36 15 inlet;
#X obj 106 15 inlet;
#X obj 176 15 inlet;
#X obj 246 15 inlet;
#X obj 36 35 change;
#X obj 106 35 change;
#X obj 176 35 change;
#X obj 246 35 change;
#X connect 1 0 2 1;
#X connect 1 0 4 1;
#X connect 1 0 6 1;
#X connect 1 0 0 0;
#X connect 2 0 1 0;
#X connect 3 0 1 0;
#X connect 4 0 3 0;
#X connect 5 0 4 0;
#X connect 5 1 6 0;
#X connect 6 0 3 1;
#X connect 7 0 5 0;
#X connect 7 1 2 0;
#X connect 8 0 7 0;
#X connect 9 0 7 0;
#X connect 10 0 7 0;
#X connect 11 0 7 0;
#X connect 12 0 16 0;
#X connect 13 0 17 0;
#X connect 14 0 18 0;
#X connect 15 0 19 0;
#X connect 16 0 8 0;
#X connect 17 0 9 0;
#X connect 18 0 10 0;
#X connect 19 0 11 0;
#X restore 155 135 pd bytemask;
#X obj 262 425 spigot;
#X obj 305 426 tgl 15 0 empty empty empty 17 7 0 10 -262144 -1 -1 0
1;
#X obj 172 425 spigot;
#X obj 215 426 tgl 15 0 empty empty empty 17 7 0 10 -262144 -1 -1 0
1;
#X obj 262 449 s wiimoteXacc;
#X obj 172 448 s wiimoteYacc;
#X obj -20 500 s fxChooser;
#X msg 62 428 3;
#X obj 32 379 bng 15 250 50 0 empty empty empty 17 7 0 10 -262144 -1
-1;
#X obj 32 357 select 1;
#X obj 2 349 bng 15 250 50 0 empty empty empty 17 7 0 10 -262144 -1
-1;
#X obj 2 327 select 1;
#X obj -28 319 bng 15 250 50 0 empty empty empty 17 7 0 10 -262144
-1 -1;
#X obj -28 297 select 1;
#X msg -28 338 0;
#X msg 2 368 1;
#X msg 32 398 2;
#X obj 92 439 bng 15 250 50 0 empty empty empty 17 7 0 10 -262144 -1
-1;
#X obj 92 417 select 1;
#X msg 92 458 4;
#X obj 62 408 bng 15 250 50 0 empty empty empty 17 7 0 10 -262144 -1
-1;
#X obj 62 387 select 4;
#X obj 352 425 spigot;
#X obj 395 426 tgl 15 0 empty empty empty 17 7 0 10 -262144 -1 -1 0
1;
#X obj 352 449 s wiimoteZacc;
#X obj 138 335 random 5;
#X obj 138 297 select 1;
#X obj 138 317 bng 15 250 50 0 empty empty empty 17 7 0 10 -262144
-1 -1;
#X msg -18 64 reportStatus;
#X obj 271 366 s wiimoteMetaSwitch;
#X obj 271 326 bng 15 250 50 0 empty empty empty 17 7 0 10 -262144
-1 -1;
#X obj 271 347 tgl 15 0 empty empty empty 17 7 0 10 -262144 -1 -1 0
1;
#X obj 271 299 select 1;
#X connect 0 0 28 0;
#X connect 0 1 26 0;
#X connect 0 2 24 0;
#X connect 0 3 33 0;
#X connect 0 4 18 0;
#X connect 0 5 41 0;
#X connect 0 6 41 0;
#X connect 0 7 36 0;
#X connect 0 8 38 0;
#X connect 0 9 47 0;
#X connect 0 10 16 0;
#X connect 1 0 0 0;
#X connect 1 1 8 0;
#X connect 2 0 1 0;
#X connect 3 0 1 0;
#X connect 4 0 1 0;
#X connect 5 0 4 0;
#X connect 6 0 7 0;
#X connect 7 0 1 0;
#X connect 8 0 15 0;
#X connect 8 1 17 0;
#X connect 8 2 37 0;
#X connect 9 0 1 0;
#X connect 10 0 14 0;
#X connect 11 0 14 1;
#X connect 12 0 14 2;
#X connect 13 0 14 3;
#X connect 14 0 9 0;
#X connect 15 0 19 0;
#X connect 16 0 15 1;
#X connect 17 0 20 0;
#X connect 18 0 17 1;
#X connect 22 0 21 0;
#X connect 23 0 31 0;
#X connect 24 0 23 0;
#X connect 25 0 30 0;
#X connect 26 0 25 0;
#X connect 27 0 29 0;
#X connect 28 0 27 0;
#X connect 29 0 21 0;
#X connect 30 0 21 0;
#X connect 31 0 21 0;
#X connect 32 0 34 0;
#X connect 33 0 32 0;
#X connect 34 0 21 0;
#X connect 35 0 22 0;
#X connect 36 0 35 0;
#X connect 37 0 39 0;
#X connect 38 0 37 1;
#X connect 40 0 21 0;
#X connect 41 0 42 0;
#X connect 42 0 40 0;
#X connect 43 0 1 0;
#X connect 45 0 46 0;
#X connect 46 0 44 0;
#X connect 47 0 45 0;
#X restore 7 243 pd wiimoteInterface;
#X msg 433 540 1;
#X obj 407 479 vsl 20 75 0.01 1 0 0 empty empty empty 0 -9 0 10 -262144
-1 -1 0 1;
#X msg 464 540 0;
#N canvas 227 415 450 145 mainCamOut 0;
#X obj 12 34 inlet;
#X obj 12 102 rectangle 5.86 3.3;
#X obj 64 80 * 16;
#X obj 117 80 * 9;
#X obj 86 35 hsl 128 15 0.01 0.443 0 0 empty empty empty -2 -8 0 10
-262144 -1 -1 0 1;
#X obj 64 35 bng 15 250 50 0 empty empty empty 17 7 0 10 -262144 -1
-1;
#X msg 64 56 5.86;
#X msg 117 56 3.3;
#X connect 0 0 1 0;
#X connect 2 0 1 1;
#X connect 3 0 1 2;
#X connect 4 0 2 0;
#X connect 4 0 3 0;
#X connect 5 0 6 0;
#X connect 5 0 7 0;
#X connect 6 0 1 1;
#X connect 7 0 1 2;
#X restore 292 618 pd mainCamOut;
#X text 362 133 Solarize;
#X text 362 118 Posterize;
#X text 362 163 Tile;
#X text 362 104 Chromium;
#X text 362 148 Kaleidoscope;
#X obj 337 103 vradio 15 1 0 5 empty empty empty 0 -8 0 10 -262144
-1 -1 0;
#X obj 355 182 tgl 15 0 empty empty bypass 18 8 0 10 -262144 -1 -1
0 1;
#X obj 355 55 metro 10000;
#X obj 271 526 r wiimoteMetaSwitch;
#X msg 48 127 file videos/mf/vid03 85;
#N canvas 71 93 645 465 lumaoffsetPost 0;
#N canvas 645 332 430 385 HalfToneVFX 0;
#X obj 12 6 inlet;
#X obj 12 279 outlet;
#X obj 67 82 vsl 30 80 0 1 0 0 empty empty scale -2 -9 0 8 -262144
-1 -1 3956 1;
#X obj 161 138 bng 15 250 50 0 empty empty defaults 17 7 0 8 -262144
-1 -1;
#X obj 117 30 nbx 3 14 0 1 0 1 empty empty empty 0 -8 0 10 -262144
-1 -1 0.361634 256;
#X obj 67 30 nbx 3 14 0 1 0 1 empty empty empty 0 -8 0 10 -262144 -1
-1 0.500787 256;
#X floatatom 67 167 5 0 0 0 - - -;
#X floatatom 117 167 5 0 0 0 - - -;
#X obj 12 241 pix_freeframe ./plugins/LumaOffsetVFX;
#X obj 161 88 tgl 15 0 empty empty filled_lines 17 7 0 8 -262144 -1
-1 1 1;
#X obj 161 108 tgl 15 0 empty empty smooth_fill 17 7 0 8 -262144 -1
-1 1 1;
#X obj 117 82 vsl 30 80 0 1 0 0 empty empty gap 0 -9 0 8 -262144 -1
-1 300 1;
#X msg 231 193 0;
#X text 69 277 The image is broken up into scan lines. Each part of
the scan line is moved up or down depending on the brightness.;
#X text 14 334 Uses the Pete's Plugins freeframe plugin LumaOffset.
http://www.petewarden.com;
#X text 55 52 LumaOffsetVFX;
#X obj 67 6 inlet;
#X obj 117 6 inlet;
#X obj 161 6 inlet;
#X obj 211 6 inlet;
#X connect 0 0 8 0;
#X connect 2 0 6 0;
#X connect 3 0 4 0;
#X connect 3 0 5 0;
#X connect 3 0 12 0;
#X connect 4 0 11 0;
#X connect 5 0 2 0;
#X connect 6 0 8 1;
#X connect 7 0 8 2;
#X connect 8 0 1 0;
#X connect 9 0 8 3;
#X connect 10 0 8 4;
#X connect 11 0 7 0;
#X connect 12 0 9 0;
#X connect 12 0 10 0;
#X connect 16 0 5 0;
#X connect 17 0 4 0;
#X connect 18 0 9 0;
#X connect 19 0 10 0;
#X coords 0 -1 1 1 210 135 2 50 50;
#X restore -176 138 pd HalfToneVFX;
#X obj -231 11 inlet;
#X obj -164 11 inlet;
#X obj -231 289 outlet;
#X obj -164 49 tgl 15 0 empty empty empty 17 7 0 10 -262144 -1 -1 1
1;
#X obj -219 71 invert;
#X obj -126 11 inlet;
#X obj -75 11 inlet;
#X obj -24 11 inlet;
#X obj -231 93 spigot 0;
#X obj -176 93 spigot 1;
#X obj 62 53 r fid0006angle;
#X obj 155 53 r fid0006y;
#X obj 223 53 r fid0006x;
#X obj 27 11 inlet;
#X obj -102 46 hsl 128 30 0.4 0.6 0 0 empty empty empty -2 -8 0 10
-262144 -1 -1 6400 1;
#X connect 0 0 3 0;
#X connect 1 0 9 0;
#X connect 1 0 10 0;
#X connect 2 0 4 0;
#X connect 4 0 5 0;
#X connect 4 0 10 1;
#X connect 5 0 9 1;
#X connect 6 0 0 1;
#X connect 7 0 0 2;
#X connect 8 0 0 3;
#X connect 9 0 3 0;
#X connect 10 0 0 0;
#X connect 11 0 0 1;
#X connect 13 0 0 2;
#X connect 14 0 0 4;
#X connect 15 0 0 1;
#X restore 292 503 pd lumaoffsetPost;
#X obj 316 481 tgl 15 0 empty empty empty 17 7 0 10 -262144 -1 -1 0
1;
#N canvas 0 0 663 515 bloomPost 0;
#N canvas 367 266 437 372 BloomVFX 0;
#X obj 12 6 inlet;
#X obj 57 83 vsl 30 80 0 1 0 1 empty empty radius -2 -9 0 8 -262144
-1 -1 3886 1;
#X obj 12 279 outlet;
#X floatatom 57 168 5 0 0 0 - - -;
#X text 53 50 BloomVFX;
#X obj 107 83 vsl 30 80 1 4 0 1 empty empty passes -2 -9 0 8 -262144
-1 -1 5500 1;
#X floatatom 107 168 5 0 0 0 - - -;
#X obj 157 83 vsl 30 80 0 1 0 1 empty empty floor -2 -9 0 8 -262144
-1 -1 2700 1;
#X floatatom 157 168 5 0 0 0 - - -;
#X obj 207 83 vsl 30 80 0 1 0 1 empty empty ceiling -2 -9 0 8 -262144
-1 -1 3678 1;
#X floatatom 207 168 5 0 0 0 - - -;
#X obj 257 83 vsl 30 80 0 1 0 1 empty empty aspect -2 -9 0 8 -262144
-1 -1 5600 1;
#X floatatom 257 168 5 0 0 0 - - -;
#X obj 307 83 vsl 30 80 0 1 0 1 empty empty boost -2 -9 0 8 -262144
-1 -1 1500 1;
#X floatatom 307 168 5 0 0 0 - - -;
#X obj 269 52 bng 15 250 50 0 empty empty defaults 17 7 0 8 -262144
-1 -1;
#X obj 57 23 nbx 4 14 0 1 0 1 empty empty empty 0 -8 0 10 -262144 -1
-1 0.34 256;
#X obj 107 23 nbx 1 14 1 4 0 1 empty empty empty 0 -8 0 10 -262144
-1 -1 3 256;
#X obj 157 23 nbx 4 14 0 1 0 1 empty empty empty 0 -8 0 10 -262144
-1 -1 0.62 256;
#X obj 207 23 nbx 4 14 0 1 0 1 empty empty empty 0 -8 0 10 -262144
-1 -1 0.82 256;
#X obj 257 23 nbx 4 14 0 1 0 1 empty empty empty 0 -8 0 10 -262144
-1 -1 0.34 256;
#X obj 307 23 nbx 4 14 0 1 0 1 empty empty empty 0 -8 0 10 -262144
-1 -1 0.13 256;
#X text 69 277 This effect tries to simulate the photographic problem
of 'blooming' \, where areas of a picture exposed to very strong light
bleed into neighbouring areas \, brightening them and giving light
sources a halo.;
#X obj 12 241 pix_freeframe ./plugins/BloomVFX;
#X text 14 334 Uses the Pete's Plugins freeframe plugin Bloom. http://www.petewarden.com
;
#X connect 0 0 23 0;
#X connect 1 0 3 0;
#X connect 3 0 23 1;
#X connect 5 0 6 0;
#X connect 6 0 23 2;
#X connect 7 0 8 0;
#X connect 8 0 23 3;
#X connect 9 0 10 0;
#X connect 10 0 23 4;
#X connect 11 0 12 0;
#X connect 12 0 23 5;
#X connect 13 0 14 0;
#X connect 14 0 23 6;
#X connect 15 0 16 0;
#X connect 15 0 17 0;
#X connect 15 0 18 0;
#X connect 15 0 19 0;
#X connect 15 0 20 0;
#X connect 15 0 21 0;
#X connect 16 0 1 0;
#X connect 17 0 5 0;
#X connect 18 0 7 0;
#X connect 19 0 9 0;
#X connect 20 0 11 0;
#X connect 21 0 13 0;
#X connect 23 0 2 0;
#X coords 0 -1 1 1 295 135 2 50 50;
#X restore -166 129 pd BloomVFX;
#X obj -221 21 inlet;
#X obj -154 21 inlet;
#X obj -221 299 outlet;
#X obj -154 59 tgl 15 0 empty empty empty 17 7 0 10 -262144 -1 -1 0
1;
#X obj -209 81 invert;
#X obj -116 21 inlet;
#X obj -65 21 inlet;
#X obj -14 21 inlet;
#X obj -221 103 spigot 0;
#X obj -166 103 spigot 1;
#X obj 72 63 r fid0006angle;
#X obj 165 63 r fid0006y;
#X obj 233 63 r fid0006x;
#X obj 37 21 inlet;
#X obj 148 96 hsl 128 30 0.4 0.6 0 0 empty empty empty -2 -8 0 10 -262144
-1 -1 0 1;
#X connect 0 0 3 0;
#X connect 1 0 9 0;
#X connect 1 0 10 0;
#X connect 2 0 4 0;
#X connect 4 0 5 0;
#X connect 4 0 10 1;
#X connect 5 0 9 1;
#X connect 9 0 3 0;
#X connect 10 0 0 0;
#X restore 292 461 pd bloomPost;
#X obj 305 440 tgl 15 0 empty empty empty 17 7 0 10 -262144 -1 -1 0
1;
#X connect 1 0 2 0;
#X connect 2 0 1 0;
#X connect 4 0 6 0;
#X connect 6 0 28 0;
#X connect 7 0 9 0;
#X connect 9 0 37 0;
#X connect 11 0 10 0;
#X connect 13 0 31 0;
#X connect 14 0 49 0;
#X connect 15 0 37 2;
#X connect 16 0 57 0;
#X connect 17 0 57 0;
#X connect 18 0 23 0;
#X connect 19 0 18 0;
#X connect 21 0 13 0;
#X connect 22 0 21 1;
#X connect 23 0 22 0;
#X connect 25 0 26 0;
#X connect 26 0 27 0;
#X connect 29 0 28 1;
#X connect 31 0 62 0;
#X connect 32 0 31 0;
#X connect 33 0 28 2;
#X connect 34 0 30 0;
#X connect 35 0 27 0;
#X connect 36 0 27 0;
#X connect 37 0 21 0;
#X connect 38 0 30 1;
#X connect 39 0 32 0;
#X connect 40 0 41 1;
#X connect 41 0 14 0;
#X connect 42 0 41 2;
#X connect 43 0 41 3;
#X connect 44 0 35 0;
#X connect 46 0 41 4;
#X connect 47 0 41 4;
#X connect 48 0 41 4;
#X connect 55 0 37 1;
#X connect 56 0 37 3;
#X connect 57 0 15 0;
#X connect 58 0 40 0;
#X connect 59 0 27 0;
#X connect 60 0 41 0;
#X connect 61 0 60 1;
#X connect 62 0 60 0;
#X connect 63 0 62 1;
