#N canvas 160 316 450 300 10;
#X obj 18 23 inlet;
#X obj 78 23 inlet;
#X obj 70 213 outlet;
#X obj 141 213 outlet;
#X obj 78 49 tgl 15 0 empty empty enable 17 7 0 10 -262144 -1 -1 0
1;
#X obj 156 23 inlet;
#X obj 156 49 tgl 15 0 empty empty mute 17 7 0 10 -262144 -1 -1 0 1
;
#X obj 18 136 gate 2;
#X obj 18 101 + 1;
#X obj 218 23 inlet;
#X obj 70 136 spigot;
#X obj 87 117 tgl 15 0 empty empty empty 17 7 0 10 -262144 -1 -1 0
1;
#X obj 156 69 invert;
#X text 16 6 input;
#X text 76 6 send enable;
#X text 156 6 mute;
#X text 216 6 return;
#X text 69 234 output;
#X text 139 234 send;
#X obj 70 182 spigot 1;
#X obj 266 77 loadbang;
#X floatatom 266 98 5 0 0 0 - - -;
#X connect 0 0 7 1;
#X connect 1 0 4 0;
#X connect 4 0 8 0;
#X connect 4 0 11 0;
#X connect 5 0 6 0;
#X connect 6 0 12 0;
#X connect 7 0 19 0;
#X connect 7 1 3 0;
#X connect 8 0 7 0;
#X connect 9 0 10 0;
#X connect 10 0 19 0;
#X connect 11 0 10 1;
#X connect 12 0 19 1;
#X connect 19 0 2 0;
#X connect 20 0 21 0;
#X connect 21 0 7 0;
